<svg width="72" height="56" viewBox="0 0 72 56" fill="none" xmlns="http://www.w3.org/2000/svg">
<path d="M28.2954 23.8389L31.3554 16.8389H33.6754L36.7354 23.8389H34.2954L32.0354 17.9589H32.9554L30.6954 23.8389H28.2954ZM30.1154 22.6189L30.7154 20.9189H33.9354L34.5354 22.6189H30.1154ZM36.6255 22.6389V21.1389L39.5955 16.8389H42.0155L39.1555 21.1389L38.0555 20.8089H43.4755V22.6389H36.6255ZM40.2555 23.8389V22.6389L40.3255 20.8089V19.7389H42.5455V23.8389H40.2555ZM19.6636 31.8189H22.7436V33.5989H19.6636V31.8189ZM19.8236 35.8389H17.4636V28.8389H23.1536V30.6189H19.8236V35.8389ZM23.8991 35.8389V28.8389H27.2691C27.9224 28.8389 28.4858 28.9455 28.9591 29.1589C29.4391 29.3722 29.8091 29.6789 30.0691 30.0789C30.3291 30.4722 30.4591 30.9389 30.4591 31.4789C30.4591 32.0189 30.3291 32.4855 30.0691 32.8789C29.8091 33.2655 29.4391 33.5622 28.9591 33.7689C28.4858 33.9755 27.9224 34.0789 27.2691 34.0789H25.2091L26.2591 33.1089V35.8389H23.8991ZM28.0891 35.8389L26.3691 33.2889H28.8691L30.6091 35.8389H28.0891ZM26.2591 33.3689L25.2091 32.2989H27.1191C27.4458 32.2989 27.6858 32.2255 27.8391 32.0789C27.9991 31.9322 28.0791 31.7322 28.0791 31.4789C28.0791 31.2255 27.9991 31.0255 27.8391 30.8789C27.6858 30.7322 27.4458 30.6589 27.1191 30.6589H25.2091L26.2591 29.5889V33.3689ZM30.5903 35.8389L33.6503 28.8389H35.9703L39.0303 35.8389H36.5903L34.3303 29.9589H35.2503L32.9903 35.8389H30.5903ZM32.4103 34.6189L33.0103 32.9189H36.2303L36.8303 34.6189H32.4103ZM39.4069 35.8389V28.8389H41.3469L44.1469 33.4089H43.1269L45.8469 28.8389H47.7869L47.8069 35.8389H45.6569L45.6369 32.0789H45.9769L44.1169 35.2089H43.0769L41.1369 32.0789H41.5569V35.8389H39.4069ZM51.1079 31.4389H54.2279V33.1389H51.1079V31.4389ZM51.2679 34.0589H54.7679V35.8389H48.9479V28.8389H54.6379V30.6189H51.2679V34.0589Z" fill="black"/>
<path d="M15.75 0H2.25C1.008 0 0 1.00352 0 2.24V15.68C0 16.9165 1.008 17.92 2.25 17.92C3.492 17.92 4.5 16.9165 4.5 15.68V4.48H15.75C16.992 4.48 18 3.47648 18 2.24C18 1.00352 16.992 0 15.75 0ZM69.75 38.08C68.508 38.08 67.5 39.0835 67.5 40.32V51.52H56.25C55.008 51.52 54 52.5235 54 53.76C54 54.9965 55.008 56 56.25 56H69.75C70.992 56 72 54.9965 72 53.76V40.32C72 39.0835 70.992 38.08 69.75 38.08ZM15.75 51.52H4.5V40.32C4.5 39.0835 3.492 38.08 2.25 38.08C1.008 38.08 0 39.0835 0 40.32V53.76C0 54.9965 1.008 56 2.25 56H15.75C16.992 56 18 54.9965 18 53.76C18 52.5235 16.992 51.52 15.75 51.52ZM69.75 0H56.25C55.008 0 54 1.00352 54 2.24C54 3.47648 55.008 4.48 56.25 4.48H67.5V15.68C67.5 16.9165 68.508 17.92 69.75 17.92C70.992 17.92 72 16.9165 72 15.68V2.24C72 1.00352 70.992 0 69.75 0Z" fill="black"/>
</svg>
