<svg width="52" height="76" viewBox="0 0 52 76" fill="none" xmlns="http://www.w3.org/2000/svg">
<path d="M23.8532 55.8389H26.2132V62.8389H23.8532V55.8389ZM21.6732 62.8389H19.3132V55.8389H21.6732V62.8389ZM24.0132 60.2589H21.5132V58.3189H24.0132V60.2589ZM31.0203 62.9989C30.4536 62.9989 29.9269 62.9089 29.4403 62.7289C28.9603 62.5489 28.5436 62.2955 28.1903 61.9689C27.8369 61.6355 27.5603 61.2455 27.3603 60.7989C27.1669 60.3522 27.0703 59.8655 27.0703 59.3389C27.0703 58.8055 27.1669 58.3189 27.3603 57.8789C27.5603 57.4322 27.8369 57.0455 28.1903 56.7189C28.5436 56.3855 28.9603 56.1289 29.4403 55.9489C29.9269 55.7689 30.4536 55.6789 31.0203 55.6789C31.5936 55.6789 32.1203 55.7689 32.6003 55.9489C33.0803 56.1289 33.4969 56.3855 33.8503 56.7189C34.2036 57.0455 34.4769 57.4322 34.6703 57.8789C34.8703 58.3189 34.9703 58.8055 34.9703 59.3389C34.9703 59.8655 34.8703 60.3522 34.6703 60.7989C34.4769 61.2455 34.2036 61.6355 33.8503 61.9689C33.4969 62.2955 33.0803 62.5489 32.6003 62.7289C32.1203 62.9089 31.5936 62.9989 31.0203 62.9989ZM33.3103 64.6089C32.9836 64.6089 32.6803 64.5755 32.4003 64.5089C32.1203 64.4489 31.8469 64.3455 31.5803 64.1989C31.3203 64.0522 31.0469 63.8489 30.7603 63.5889C30.4736 63.3355 30.1536 63.0189 29.8003 62.6389L32.2403 62.0389C32.4003 62.2855 32.5369 62.4755 32.6503 62.6089C32.7636 62.7422 32.8736 62.8355 32.9803 62.8889C33.0936 62.9422 33.2203 62.9689 33.3603 62.9689C33.7069 62.9689 34.0303 62.8189 34.3303 62.5189L35.3503 63.7189C34.8503 64.3122 34.1703 64.6089 33.3103 64.6089ZM31.0203 61.0889C31.2403 61.0889 31.4436 61.0489 31.6303 60.9689C31.8236 60.8889 31.9903 60.7755 32.1303 60.6289C32.2769 60.4755 32.3903 60.2922 32.4703 60.0789C32.5503 59.8589 32.5903 59.6122 32.5903 59.3389C32.5903 59.0655 32.5503 58.8222 32.4703 58.6089C32.3903 58.3889 32.2769 58.2055 32.1303 58.0589C31.9903 57.9055 31.8236 57.7889 31.6303 57.7089C31.4436 57.6289 31.2403 57.5889 31.0203 57.5889C30.8003 57.5889 30.5936 57.6289 30.4003 57.7089C30.2136 57.7889 30.0469 57.9055 29.9003 58.0589C29.7603 58.2055 29.6503 58.3889 29.5703 58.6089C29.4903 58.8222 29.4503 59.0655 29.4503 59.3389C29.4503 59.6122 29.4903 59.8589 29.5703 60.0789C29.6503 60.2922 29.7603 60.4755 29.9003 60.6289C30.0469 60.7755 30.2136 60.8889 30.4003 60.9689C30.5936 61.0489 30.8003 61.0889 31.0203 61.0889ZM11.1393 74.8389V67.8389H14.5093C15.1627 67.8389 15.726 67.9455 16.1993 68.1589C16.6793 68.3722 17.0493 68.6789 17.3093 69.0789C17.5693 69.4722 17.6993 69.9389 17.6993 70.4789C17.6993 71.0189 17.5693 71.4855 17.3093 71.8789C17.0493 72.2722 16.6793 72.5789 16.1993 72.7989C15.726 73.0122 15.1627 73.1189 14.5093 73.1189H12.4493L13.4993 72.1089V74.8389H11.1393ZM13.4993 72.3689L12.4493 71.2989H14.3593C14.686 71.2989 14.926 71.2255 15.0793 71.0789C15.2393 70.9322 15.3193 70.7322 15.3193 70.4789C15.3193 70.2255 15.2393 70.0255 15.0793 69.8789C14.926 69.7322 14.686 69.6589 14.3593 69.6589H12.4493L13.4993 68.5889V72.3689ZM18.4733 74.8389V67.8389H21.8433C22.4967 67.8389 23.06 67.9455 23.5333 68.1589C24.0133 68.3722 24.3833 68.6789 24.6433 69.0789C24.9033 69.4722 25.0333 69.9389 25.0333 70.4789C25.0333 71.0189 24.9033 71.4855 24.6433 71.8789C24.3833 72.2655 24.0133 72.5622 23.5333 72.7689C23.06 72.9755 22.4967 73.0789 21.8433 73.0789H19.7833L20.8333 72.1089V74.8389H18.4733ZM22.6633 74.8389L20.9433 72.2889H23.4433L25.1833 74.8389H22.6633ZM20.8333 72.3689L19.7833 71.2989H21.6933C22.02 71.2989 22.26 71.2255 22.4133 71.0789C22.5733 70.9322 22.6533 70.7322 22.6533 70.4789C22.6533 70.2255 22.5733 70.0255 22.4133 69.8789C22.26 69.7322 22.02 69.6589 21.6933 69.6589H19.7833L20.8333 68.5889V72.3689ZM25.9245 74.8389V67.8389H28.2845V74.8389H25.9245ZM29.4206 74.8389V67.8389H31.3606L34.9206 72.0989H34.0206V67.8389H36.3206V74.8389H34.3806L30.8206 70.5789H31.7206V74.8389H29.4206ZM38.9777 74.8389V69.6689H36.9277V67.8389H43.3877V69.6689H41.3377V74.8389H38.9777Z" fill="black"/>
<path d="M22.9168 18.8587C24.2883 16.3974 24.9752 15.1667 26 15.1667C27.0248 15.1667 27.7117 16.3974 29.0832 18.8587L29.4385 19.4957C29.8285 20.1956 30.0235 20.5444 30.3268 20.7741C30.6302 21.0059 31.0115 21.0926 31.7677 21.2637L32.4567 21.4197C35.1217 22.0221 36.4542 22.3232 36.7705 23.3437C37.089 24.3621 36.179 25.4237 34.3633 27.5492L33.8932 28.0996C33.3775 28.7019 33.1197 29.0052 33.0048 29.3779C32.8857 29.7506 32.9247 30.1536 33.0048 30.9596L33.0742 31.6919C33.3493 34.5259 33.4858 35.9429 32.656 36.5734C31.8262 37.2017 30.5803 36.6297 28.0843 35.4814L27.4387 35.1824C26.7302 34.8574 26.377 34.6927 26 34.6927C25.6252 34.6927 25.2698 34.8574 24.5613 35.1824L23.9157 35.4814C21.4197 36.6297 20.1738 37.2039 19.344 36.5734C18.5142 35.9451 18.6507 34.5259 18.9258 31.6919L18.9952 30.9596C19.0753 30.1536 19.1143 29.7506 18.9952 29.3779C18.8803 29.0052 18.6225 28.7019 18.1068 28.0996L17.6367 27.5492C15.821 25.4259 14.911 24.3642 15.2295 23.3437C15.5458 22.3254 16.8762 22.0221 19.5412 21.4197L20.2323 21.2637C20.9907 21.0904 21.3677 21.0059 21.6732 20.7762C21.9765 20.5444 22.1715 20.1956 22.5615 19.4979L22.9168 18.8587Z" fill="black"/>
<path fill-rule="evenodd" clip-rule="evenodd" d="M26 2.70825C26.431 2.70825 26.8443 2.87946 27.1491 3.1842C27.4538 3.48895 27.625 3.90228 27.625 4.33325V8.66659C27.625 9.09756 27.4538 9.51089 27.1491 9.81563C26.8443 10.1204 26.431 10.2916 26 10.2916C25.569 10.2916 25.1557 10.1204 24.851 9.81563C24.5462 9.51089 24.375 9.09756 24.375 8.66659V4.33325C24.375 3.90228 24.5462 3.48895 24.851 3.1842C25.1557 2.87946 25.569 2.70825 26 2.70825ZM40.1483 11.8516C40.4527 12.1563 40.6236 12.5693 40.6236 12.9999C40.6236 13.4305 40.4527 13.8436 40.1483 14.1483L39.4052 14.8914C39.0971 15.1785 38.6897 15.3347 38.2687 15.3273C37.8477 15.3199 37.4461 15.1493 37.1483 14.8516C36.8506 14.5539 36.6801 14.1522 36.6726 13.7312C36.6652 13.3102 36.8215 12.9028 37.1085 12.5948L37.8517 11.8516C38.1564 11.5473 38.5694 11.3763 39 11.3763C39.4306 11.3763 39.8437 11.5473 40.1483 11.8516ZM11.8517 11.8516C12.1564 11.5473 12.5694 11.3763 13 11.3763C13.4306 11.3763 13.8437 11.5473 14.1483 11.8516L14.8937 12.5948C15.1895 12.9014 15.3531 13.3119 15.3492 13.738C15.3453 14.1641 15.1742 14.5716 14.8728 14.8727C14.5714 15.1739 14.1637 15.3446 13.7377 15.3481C13.3116 15.3516 12.9012 15.1876 12.5948 14.8914L11.8517 14.1483C11.5474 13.8436 11.3764 13.4305 11.3764 12.9999C11.3764 12.5693 11.5474 12.1563 11.8517 11.8516ZM2.70834 25.9999C2.70834 25.5689 2.87955 25.1556 3.1843 24.8509C3.48904 24.5461 3.90237 24.3749 4.33334 24.3749H8.66668C9.09765 24.3749 9.51098 24.5461 9.81573 24.8509C10.1205 25.1556 10.2917 25.5689 10.2917 25.9999C10.2917 26.4309 10.1205 26.8442 9.81573 27.149C9.51098 27.4537 9.09765 27.6249 8.66668 27.6249H4.33334C3.90237 27.6249 3.48904 27.4537 3.1843 27.149C2.87955 26.8442 2.70834 26.4309 2.70834 25.9999ZM41.7083 25.9999C41.7083 25.5689 41.8795 25.1556 42.1843 24.8509C42.489 24.5461 42.9024 24.3749 43.3333 24.3749H47.6667C48.0977 24.3749 48.511 24.5461 48.8157 24.8509C49.1205 25.1556 49.2917 25.5689 49.2917 25.9999C49.2917 26.4309 49.1205 26.8442 48.8157 27.149C48.511 27.4537 48.0977 27.6249 47.6667 27.6249H43.3333C42.9024 27.6249 42.489 27.4537 42.1843 27.149C41.8795 26.8442 41.7083 26.4309 41.7083 25.9999ZM14.8915 37.1084C15.1958 37.4131 15.3667 37.8261 15.3667 38.2568C15.3667 38.6874 15.1958 39.1004 14.8915 39.4051L14.1483 40.1483C13.8403 40.4353 13.4329 40.5916 13.0119 40.5841C12.5909 40.5767 12.1892 40.4062 11.8915 40.1084C11.5938 39.8107 11.4232 39.409 11.4158 38.9881C11.4084 38.5671 11.5646 38.1596 11.8517 37.8516L12.5948 37.1084C12.8995 36.8041 13.3126 36.6332 13.7432 36.6332C14.1738 36.6332 14.5868 36.8041 14.8915 37.1084ZM37.1063 37.1084C37.2573 36.9574 37.4364 36.8376 37.6337 36.7559C37.8309 36.6742 38.0423 36.6321 38.2558 36.6321C38.4692 36.6321 38.6806 36.6742 38.8779 36.7559C39.0751 36.8376 39.2543 36.9574 39.4052 37.1084L40.1483 37.8516C40.4354 38.1596 40.5917 38.5671 40.5842 38.9881C40.5768 39.409 40.4063 39.8107 40.1085 40.1084C39.8108 40.4062 39.4091 40.5767 38.9881 40.5841C38.5672 40.5916 38.1597 40.4353 37.8517 40.1483L37.1085 39.4051C36.8042 39.1004 36.6333 38.6874 36.6333 38.2568C36.6333 37.8261 36.8042 37.4131 37.1085 37.1084M26 41.7083C26.431 41.7083 26.8443 41.8795 27.1491 42.1842C27.4538 42.4889 27.625 42.9023 27.625 43.3333V47.6666C27.625 48.0976 27.4538 48.5109 27.1491 48.8156C26.8443 49.1204 26.431 49.2916 26 49.2916C25.569 49.2916 25.1557 49.1204 24.851 48.8156C24.5462 48.5109 24.375 48.0976 24.375 47.6666V43.3333C24.375 42.9023 24.5462 42.4889 24.851 42.1842C25.1557 41.8795 25.569 41.7083 26 41.7083Z" fill="black"/>
</svg>
