<svg width="141" height="185" viewBox="0 0 141 185" fill="none" xmlns="http://www.w3.org/2000/svg">
<g id="Warstwa_1" clip-path="url(#clip0_1_22)" filter="url(#filter0_d_1_22)">
<g id="Group">
<path id="Vector" d="M35.3779 144.305C35.2813 141.87 35.1847 138.928 35.1847 135.987H35.0881C34.46 138.567 33.6146 141.436 32.8416 143.823L30.3778 151.707H26.8028L24.6288 143.871C23.9766 141.508 23.2761 138.615 22.793 135.987H22.7205C22.5997 138.711 22.5031 141.846 22.3582 144.353L21.9958 152.045H17.7686L19.073 131.815H25.1843L27.1651 138.567C27.7931 140.905 28.4212 143.437 28.8801 145.8H28.9768C29.5565 143.461 30.2328 140.785 30.9092 138.542L33.0832 131.815H39.0737L40.1849 152.045H35.7161L35.4263 144.305H35.3779Z" fill="white"/>
<path id="Vector_2" d="M47.1417 146.162C47.2866 148.042 49.1466 148.958 51.2964 148.958C52.8665 148.958 54.1226 148.741 55.3545 148.356L55.9584 151.442C54.4608 152.045 52.6249 152.334 50.6442 152.334C45.644 152.334 42.7937 149.465 42.7937 144.86C42.7937 141.146 45.1126 137.023 50.2094 137.023C54.968 137.023 56.7555 140.712 56.7555 144.353C56.7555 145.125 56.6589 145.824 56.6106 146.162H47.1417ZM52.5283 143.051C52.5283 141.942 52.0452 140.086 49.9437 140.086C48.0113 140.086 47.2383 141.822 47.1175 143.051H52.5283Z" fill="white"/>
<path id="Vector_3" d="M59.5093 142.208C59.5093 140.038 59.4368 138.639 59.3885 137.385H63.3258L63.4708 140.086H63.5915C64.3404 137.964 66.152 137.048 67.553 137.048C67.9637 137.048 68.1811 137.048 68.5193 137.12V141.412C68.1811 141.34 67.7946 141.291 67.2873 141.291C65.5964 141.291 64.4611 142.184 64.1713 143.606C64.0988 143.895 64.0747 144.257 64.0747 144.619V152.069H59.5093V142.232V142.208Z" fill="white"/>
<path id="Vector_4" d="M75.6451 133.286C75.6451 134.54 74.6789 135.577 73.1812 135.577C71.6836 135.577 70.7657 134.564 70.814 133.286C70.7899 131.96 71.7561 130.972 73.2296 130.972C74.703 130.972 75.6451 131.96 75.6693 133.286H75.6451ZM70.9348 152.045V137.361H75.5002V152.045H70.9348Z" fill="white"/>
<path id="Vector_5" d="M84.2686 133.166V137.361H87.5538V140.713H84.2686V146.017C84.2686 147.777 84.6793 148.597 86.0803 148.597C86.66 148.597 87.0948 148.525 87.433 148.477V151.924C86.8533 152.166 85.7904 152.31 84.486 152.31C83.0125 152.31 81.7806 151.804 81.0559 151.056C80.2105 150.188 79.7999 148.766 79.7999 146.716V140.713H77.8433V137.361H79.7999V134.179L84.2686 133.166Z" fill="white"/>
<path id="Vector_6" d="M104.052 147.319C104.052 149.248 104.124 150.791 104.173 152.021H100.211L99.9938 149.947H99.8972C99.3175 150.839 97.9406 152.358 95.3077 152.358C92.3365 152.358 90.1384 150.502 90.1384 145.969V137.361H94.7279V145.246C94.7279 147.367 95.4284 148.669 97.0227 148.669C98.2788 148.669 99.0035 147.801 99.3175 147.078C99.4382 146.813 99.4624 146.451 99.4624 146.09V137.361H104.052V147.319Z" fill="white"/>
<path id="Vector_7" d="M107.699 148.042C108.545 148.549 110.284 149.151 111.637 149.151C112.989 149.151 113.593 148.669 113.593 147.922C113.593 147.174 113.134 146.813 111.419 146.234C108.376 145.221 107.216 143.558 107.24 141.822C107.24 139.097 109.584 137.023 113.231 137.023C114.946 137.023 116.468 137.409 117.386 137.867L116.564 141.026C115.912 140.664 114.632 140.182 113.376 140.182C112.265 140.182 111.637 140.64 111.637 141.388C111.637 142.087 112.216 142.448 114.004 143.075C116.806 144.04 117.965 145.438 118.014 147.608C118.014 150.333 115.84 152.358 111.637 152.358C109.704 152.358 107.989 151.948 106.878 151.345L107.699 148.066V148.042Z" fill="white"/>
<path id="Vector_8" d="M21.5852 168.923C21.4886 166.487 21.4161 163.546 21.4161 160.604H21.3195C20.6914 163.184 19.846 166.053 19.073 168.44L16.6092 176.325H13.0341L10.8602 168.489C10.208 166.126 9.50745 163.232 9.02434 160.604H8.97603C8.85525 163.329 8.75863 166.463 8.61369 168.971L8.25136 176.662H4L5.3044 156.433H11.4157L13.3965 163.184C14.0245 165.523 14.6526 168.055 15.1115 170.418H15.2081C15.7879 168.079 16.4642 165.402 17.1406 163.16L19.3146 156.433H25.3051L26.4163 176.662H21.9475L21.6576 168.923H21.5852Z" fill="white"/>
<path id="Vector_9" d="M33.3489 170.779C33.4938 172.66 35.3538 173.576 37.5036 173.576C39.0737 173.576 40.3298 173.359 41.5618 172.973L42.1656 176.06C40.668 176.662 38.8322 176.952 36.8514 176.952C31.8513 176.952 29.0009 174.082 29.0009 169.477C29.0009 165.764 31.3198 161.641 36.4166 161.641C41.1753 161.641 42.9628 165.33 42.9628 168.971C42.9628 169.742 42.8662 170.442 42.8178 170.779H33.3489ZM38.7356 167.669C38.7356 166.56 38.2525 164.703 36.1509 164.703C34.2185 164.703 33.4455 166.439 33.3247 167.669H38.7356Z" fill="white"/>
<path id="Vector_10" d="M45.7165 166.825C45.7165 164.655 45.644 163.256 45.5957 162.003H49.533L49.678 164.703H49.7988C50.5476 162.581 52.3592 161.665 53.7603 161.665C54.1709 161.665 54.3883 161.665 54.7265 161.737V166.029C54.3883 165.957 54.0018 165.909 53.4945 165.909C51.8037 165.909 50.6684 166.801 50.3785 168.223C50.306 168.513 50.2819 168.874 50.2819 169.236V176.686H45.7165V166.849V166.825Z" fill="white"/>
<path id="Vector_11" d="M67.9395 176.301C67.1182 176.662 65.5964 176.952 63.8573 176.952C59.0986 176.952 56.0792 174.082 56.0792 169.453C56.0792 165.161 59.0262 161.641 64.4853 161.641C65.6931 161.641 67.0216 161.858 67.9637 162.22L67.239 165.619C66.7076 165.378 65.8863 165.161 64.6785 165.161C62.263 165.161 60.717 166.873 60.7412 169.26C60.7412 171.961 62.5529 173.359 64.7752 173.359C65.8622 173.359 66.7076 173.19 67.384 172.901L67.9154 176.252L67.9395 176.301Z" fill="white"/>
<path id="Vector_12" d="M78.9303 176.662L78.6646 175.192H78.5679C77.6017 176.373 76.1041 177 74.3649 177C71.3938 177 69.6063 174.83 69.6063 172.491C69.6063 168.682 73.0363 166.849 78.2298 166.873V166.656C78.2298 165.885 77.8191 164.776 75.5485 164.776C74.0509 164.776 72.4566 165.282 71.4904 165.885L70.6449 162.943C71.6595 162.364 73.6885 161.641 76.3456 161.641C81.2492 161.641 82.8193 164.51 82.8193 167.982V173.094C82.8193 174.516 82.8918 175.867 83.0367 176.662H78.9303ZM78.3989 169.742C75.9833 169.718 74.1233 170.273 74.1233 172.057C74.1233 173.239 74.8963 173.793 75.935 173.793C77.0703 173.793 78.0124 173.046 78.3022 172.105C78.3747 171.864 78.3989 171.599 78.3989 171.334V169.742Z" fill="white"/>
<path id="Vector_13" d="M91.322 157.783V161.979H94.6072V165.33H91.322V170.634C91.322 172.395 91.7327 173.214 93.1337 173.214C93.7134 173.214 94.1482 173.142 94.4864 173.094V176.542C93.9067 176.783 92.8438 176.927 91.5394 176.927C90.0659 176.927 88.834 176.421 88.1093 175.674C87.2639 174.806 86.8533 173.383 86.8533 171.334V165.33H84.8967V161.979H86.8533V158.796L91.322 157.783Z" fill="white"/>
<path id="Vector_14" d="M111.105 171.961C111.105 173.89 111.178 175.433 111.226 176.662H107.265L107.047 174.589H106.951C106.371 175.481 104.994 177 102.361 177C99.3899 177 97.1918 175.144 97.1918 170.611V162.003H101.781V169.887C101.781 172.009 102.482 173.311 104.076 173.311C105.332 173.311 106.057 172.443 106.371 171.72C106.492 171.455 106.516 171.093 106.516 170.731V162.003H111.105V171.961Z" fill="white"/>
<path id="Vector_15" d="M114.801 166.68C114.801 164.848 114.729 163.28 114.68 162.003H118.521L118.738 163.98H118.835C119.463 163.039 120.768 161.665 123.28 161.665C125.164 161.665 126.686 162.629 127.314 164.148H127.362C127.893 163.401 128.57 162.798 129.246 162.388C130.067 161.906 130.961 161.665 132.048 161.665C134.874 161.665 137 163.642 137 168.03V176.662H132.555V168.681C132.555 166.56 131.855 165.33 130.381 165.33C129.319 165.33 128.57 166.053 128.28 166.921C128.159 167.259 128.111 167.741 128.111 168.103V176.686H123.666V168.464C123.666 166.608 123.014 165.354 121.565 165.354C120.381 165.354 119.705 166.246 119.439 166.994C119.294 167.355 119.27 167.765 119.27 168.127V176.686H114.825V166.704L114.801 166.68Z" fill="white"/>
</g>
<g id="Group_2">
<g id="Group_3">
<path id="Vector_16" d="M66.4419 28.4993C65.8138 28.4993 65.2099 28.2581 64.7268 27.8L42.842 5.97944C41.8999 5.0391 41.8999 3.5201 42.842 2.57976C43.784 1.63943 45.3058 1.63943 46.2479 2.57976L68.1086 24.4004C69.0507 25.3407 69.0507 26.8597 68.1086 27.8C67.6255 28.2823 67.0216 28.4993 66.3936 28.4993H66.4419Z" fill="white"/>
<path id="Vector_17" d="M60.4997 34.4306C59.8716 34.4306 59.2677 34.1895 58.7846 33.7314L31.1025 6.10004C30.1604 5.15971 30.1604 3.6407 31.1025 2.70037C32.0445 1.76003 33.5663 1.76003 34.5084 2.70037L62.1905 30.3318C63.1326 31.2721 63.1326 32.7911 62.1905 33.7314C61.7074 34.2136 61.1035 34.4306 60.4755 34.4306H60.4997Z" fill="white"/>
<path id="Vector_18" d="M54.5574 40.3621C53.9294 40.3621 53.3255 40.1209 52.8424 39.6628L17.2614 4.12299C16.3193 3.18266 16.3193 1.66365 17.2614 0.723318C18.2034 -0.217017 19.7252 -0.217017 20.6673 0.723318L56.2483 36.2632C57.1903 37.2035 57.1903 38.7225 56.2483 39.6628C55.7652 40.1451 55.1613 40.3621 54.5332 40.3621H54.5574Z" fill="white"/>
<path id="Vector_19" d="M48.6393 46.2693C48.0113 46.2693 47.4074 46.0282 46.9243 45.5701L11.3433 10.0302C10.4012 9.08988 10.4012 7.57088 11.3433 6.63054C12.2853 5.69021 13.8071 5.69021 14.7492 6.63054L50.3302 42.1463C51.2723 43.0866 51.2723 44.6056 50.3302 45.5459C49.8471 46.0282 49.2432 46.2452 48.6151 46.2452L48.6393 46.2693Z" fill="white"/>
<path id="Vector_20" d="M42.6971 52.2009C42.069 52.2009 41.4651 51.9597 40.982 51.5016L13.2999 23.8461C12.3578 22.9058 12.3578 21.3868 13.2999 20.4465C14.2419 19.5061 15.7637 19.5061 16.7058 20.4465L44.388 48.0778C45.33 49.0182 45.33 50.5372 44.388 51.4775C43.9048 51.9597 43.301 52.1767 42.6729 52.1767L42.6971 52.2009Z" fill="white"/>
<path id="Vector_21" d="M36.779 58.1077C36.1509 58.1077 35.5471 57.8665 35.0639 57.4084L13.2033 35.5878C12.2612 34.6475 12.2612 33.1285 13.2033 32.1882C14.1453 31.2478 15.6671 31.2478 16.6092 32.1882L38.4699 54.0088C39.4119 54.9491 39.4119 56.4681 38.4699 57.4084C37.9868 57.8907 37.3829 58.1077 36.7548 58.1077H36.779Z" fill="white"/>
</g>
<g id="Group_4">
<path id="Vector_22" d="M126.323 88.2951C125.695 88.2951 125.091 88.054 124.608 87.5959L102.748 65.7753C101.805 64.835 101.805 63.316 102.748 62.3757C103.69 61.4353 105.211 61.4353 106.153 62.3757L128.014 84.1962C128.956 85.1366 128.956 86.6556 128.014 87.5959C127.531 88.0782 126.927 88.2951 126.299 88.2951H126.323Z" fill="white"/>
<path id="Vector_23" d="M126.202 100.013C125.574 100.013 124.971 99.7721 124.487 99.3139L96.8053 71.6826C95.8632 70.7422 95.8632 69.2232 96.8053 68.2829C97.7474 67.3426 99.2692 67.3426 100.211 68.2829L127.893 95.9143C128.835 96.8546 128.835 98.3736 127.893 99.3139C127.41 99.7962 126.806 100.013 126.178 100.013H126.202Z" fill="white"/>
<path id="Vector_24" d="M128.183 113.829C127.555 113.829 126.951 113.588 126.468 113.129L90.863 77.6137C89.921 76.6734 89.921 75.1544 90.863 74.214C91.8051 73.2737 93.3269 73.2737 94.269 74.214L129.874 109.73C130.816 110.67 130.816 112.189 129.874 113.129C129.391 113.612 128.787 113.829 128.159 113.829H128.183Z" fill="white"/>
<path id="Vector_25" d="M122.241 119.736C121.613 119.736 121.009 119.495 120.526 119.037L84.945 83.497C84.0029 82.5567 84.0029 81.0377 84.945 80.0973C85.887 79.157 87.4088 79.157 88.3509 80.0973L123.932 115.637C124.874 116.578 124.874 118.097 123.932 119.037C123.449 119.519 122.845 119.736 122.217 119.736H122.241Z" fill="white"/>
<path id="Vector_26" d="M108.4 117.783C107.772 117.783 107.168 117.542 106.685 117.084L79.0027 89.4526C78.0607 88.5122 78.0607 86.9932 79.0027 86.0529C79.9448 85.1126 81.4666 85.1126 82.4086 86.0529L110.091 113.684C111.033 114.625 111.033 116.144 110.091 117.084C109.608 117.566 109.004 117.783 108.376 117.783H108.4Z" fill="white"/>
<path id="Vector_27" d="M96.6604 117.88C96.0323 117.88 95.4284 117.639 94.9453 117.18L73.0846 95.3598C72.1426 94.4195 72.1426 92.9005 73.0846 91.9601C74.0267 91.0198 75.5485 91.0198 76.4906 91.9601L98.3512 113.781C99.2933 114.721 99.2933 116.24 98.3512 117.18C97.8681 117.663 97.2642 117.88 96.6362 117.88H96.6604Z" fill="white"/>
</g>
<g id="Group_5">
<path id="Vector_28" d="M74.22 29.4877C73.5919 29.4877 72.988 29.2466 72.5049 28.7885C71.5629 27.8482 71.5629 26.3292 72.5049 25.3888L94.3656 3.54412C95.3077 2.60378 96.8295 2.60378 97.7715 3.54412C98.7136 4.48445 98.7136 6.00346 97.7715 6.94379L75.9108 28.7644C75.4277 29.2466 74.8238 29.4636 74.1958 29.4636L74.22 29.4877Z" fill="white"/>
<path id="Vector_29" d="M80.138 35.395C79.51 35.395 78.9061 35.1539 78.423 34.6958C77.4809 33.7554 77.4809 32.2364 78.423 31.2961L106.129 3.66472C107.071 2.72439 108.593 2.72439 109.535 3.66472C110.477 4.60506 110.477 6.12406 109.535 7.0644L81.8531 34.6958C81.37 35.178 80.7661 35.395 80.138 35.395Z" fill="white"/>
<path id="Vector_30" d="M86.0803 41.3264C85.4522 41.3264 84.8483 41.0853 84.3652 40.6272C83.4232 39.6869 83.4232 38.1678 84.3652 37.2275L119.97 1.68767C120.912 0.747338 122.434 0.747338 123.376 1.68767C124.318 2.62801 124.318 4.14701 123.376 5.08735L87.7953 40.6031C87.3122 41.0853 86.7083 41.3023 86.0803 41.3023V41.3264Z" fill="white"/>
<path id="Vector_31" d="M91.9984 47.2579C91.3703 47.2579 90.7665 47.0168 90.2833 46.5586C89.3413 45.6183 89.3413 44.0993 90.2833 43.159L125.864 7.64324C126.806 6.7029 128.328 6.7029 129.27 7.64324C130.212 8.58357 130.212 10.1026 129.27 11.0429L93.6893 46.5586C93.2062 47.0409 92.6023 47.2579 91.9742 47.2579H91.9984Z" fill="white"/>
<path id="Vector_32" d="M97.9406 53.165C97.3126 53.165 96.7087 52.9239 96.2256 52.4658C95.2835 51.5255 95.2835 50.0065 96.2256 49.0661L123.908 21.4347C124.85 20.4944 126.372 20.4944 127.314 21.4347C128.256 22.3751 128.256 23.8941 127.314 24.8344L99.6315 52.4658C99.1484 52.948 98.5445 53.165 97.9165 53.165H97.9406Z" fill="white"/>
<path id="Vector_33" d="M103.883 59.0964C103.255 59.0964 102.651 58.8553 102.168 58.3972C101.226 57.4569 101.226 55.9379 102.168 54.9975L124.029 33.1769C124.971 32.2366 126.492 32.2366 127.434 33.1769C128.376 34.1173 128.376 35.6363 127.434 36.5766L105.574 58.3972C105.091 58.8794 104.487 59.0964 103.859 59.0964H103.883Z" fill="white"/>
</g>
<g id="Group_6">
<path id="Vector_34" d="M14.9425 88.9944C14.3144 88.9944 13.7105 88.7533 13.2274 88.2951C12.2854 87.3548 12.2854 85.8358 13.2274 84.8955L35.0881 63.0749C36.0302 62.1345 37.552 62.1345 38.494 63.0749C39.4361 64.0152 39.4361 65.5342 38.494 66.4746L16.6333 88.2951C16.1502 88.7774 15.5463 88.9944 14.9183 88.9944H14.9425Z" fill="white"/>
<path id="Vector_35" d="M15.0632 100.736C14.4352 100.736 13.8313 100.495 13.3482 100.037C12.4061 99.0968 12.4061 97.5778 13.3482 96.6374L41.0303 69.006C41.9724 68.0657 43.4942 68.0657 44.4363 69.006C45.3783 69.9464 45.3783 71.4654 44.4363 72.4057L16.7541 100.037C16.271 100.519 15.6671 100.736 15.0391 100.736H15.0632Z" fill="white"/>
<path id="Vector_36" d="M13.0825 114.552C12.4544 114.552 11.8505 114.311 11.3674 113.853C10.4254 112.913 10.4254 111.394 11.3674 110.453L46.9484 74.9377C47.8905 73.9973 49.4123 73.9973 50.3544 74.9377C51.2964 75.878 51.2964 77.397 50.3544 78.3374L14.7734 113.853C14.2902 114.335 13.6864 114.552 13.0583 114.552H13.0825Z" fill="white"/>
<path id="Vector_37" d="M19.0247 120.46C18.3967 120.46 17.7928 120.218 17.3097 119.76C16.3676 118.82 16.3676 117.301 17.3097 116.361L52.9148 80.8449C53.8569 79.9046 55.3787 79.9046 56.3208 80.8449C57.2628 81.7852 57.2628 83.3042 56.3208 84.2446L20.7156 119.76C20.2325 120.243 19.6286 120.46 19.0006 120.46H19.0247Z" fill="white"/>
<path id="Vector_38" d="M32.8658 118.482C32.2378 118.482 31.6339 118.241 31.1508 117.783C30.2087 116.843 30.2087 115.324 31.1508 114.384L58.8329 86.7521C59.775 85.8118 61.2968 85.8118 62.2388 86.7521C63.1809 87.6925 63.1809 89.2115 62.2388 90.1518L34.5567 117.783C34.0736 118.265 33.4697 118.482 32.8416 118.482H32.8658Z" fill="white"/>
<path id="Vector_39" d="M44.6054 118.603C43.9773 118.603 43.3734 118.362 42.8903 117.904C41.9483 116.963 41.9483 115.444 42.8903 114.504L64.751 92.6833C65.6931 91.7429 67.2149 91.7429 68.1569 92.6833C69.099 93.6236 69.099 95.1426 68.1569 96.083L46.2962 117.904C45.8131 118.386 45.2092 118.603 44.5812 118.603H44.6054Z" fill="white"/>
</g>
</g>
<path id="Vector_40" d="M111.323 62.0378C110.381 61.0734 110.381 59.5303 111.347 58.614L120.139 50.1028C121.685 48.6079 120.647 45.9798 118.473 45.9557L110.357 45.9075C108.207 45.9075 107.144 43.3035 108.666 41.7844L114.511 35.9978C116.033 34.4788 114.97 31.8748 112.82 31.8748L100.235 31.8265C98.8827 31.8265 97.8198 30.7174 97.8198 29.3672L98.0131 17.1428C98.0372 14.9728 95.4284 13.8637 93.9066 15.3827L88.1335 21.0971C86.6117 22.6161 84.0029 21.5311 84.0271 19.3852L84.0754 11.1874C84.0754 9.0415 81.4907 7.95649 79.9689 9.4755L71.0314 18.3243C70.0652 19.2646 68.5192 19.2646 67.6013 18.3002L59.0745 9.52372C57.5768 7.98061 54.9439 9.01739 54.9197 11.1874L54.8714 19.2887C54.8714 21.4346 52.2626 22.4955 50.7408 20.9765L44.9435 15.1416C43.4217 13.6226 40.8129 14.6835 40.8129 16.8294L40.7646 29.3913C40.7646 30.7415 39.6535 31.8024 38.3008 31.8024L26.0539 31.6095C23.8799 31.5854 22.7688 34.1894 24.2906 35.7084L30.0154 41.471C31.5372 42.99 30.4502 45.594 28.3004 45.5699L20.0875 45.5217C17.9377 45.5217 16.8507 48.1016 18.3725 49.6206L27.2375 58.5417C28.1796 59.5061 28.1796 61.0493 27.2134 61.9655L18.4208 70.4526C16.8749 71.9475 17.9135 74.5756 20.0875 74.5997H28.2038C30.3536 74.648 31.4164 77.252 29.8946 78.771L24.049 84.5576C22.5272 86.0766 23.5901 88.6806 25.7399 88.6806L38.3249 88.7289C39.6776 88.7289 40.7405 89.838 40.7405 91.1882L40.5472 103.413C40.5231 105.583 43.1318 106.692 44.6536 105.173L50.4268 99.4583C51.9486 97.9393 54.5574 99.0243 54.5332 101.17L54.4849 109.368C54.4849 111.514 57.0695 112.599 58.5913 111.08L67.5289 102.231C68.4951 101.291 70.041 101.291 70.9589 102.255L79.4858 111.032C80.9835 112.575 83.6164 111.538 83.6406 109.368V101.267C83.6889 99.1208 86.2977 98.0599 87.8195 99.5789L93.6168 105.414C95.1386 106.933 97.7474 105.872 97.7474 103.726L97.7957 91.1641C97.7957 89.8139 98.9068 88.753 100.26 88.753L112.506 88.9459C114.68 88.97 115.791 86.366 114.27 84.847L108.545 79.0844C107.023 77.5654 108.11 74.9614 110.26 74.9855L118.473 75.0337C120.623 75.0337 121.71 72.4538 120.188 70.9348L111.323 62.0137V62.0378ZM69.2681 92.2491C51.5863 92.2491 37.2621 77.9512 37.2621 60.3018C37.2621 42.6525 51.5863 28.3545 69.2681 28.3545C86.9499 28.3545 101.274 42.6525 101.274 60.3018C101.274 77.9512 86.9499 92.2491 69.2681 92.2491Z" fill="#B79279"/>
</g>
<defs>
<filter id="filter0_d_1_22" x="0" y="0" width="141" height="185" filterUnits="userSpaceOnUse" color-interpolation-filters="sRGB">
<feFlood flood-opacity="0" result="BackgroundImageFix"/>
<feColorMatrix in="SourceAlpha" type="matrix" values="0 0 0 0 0 0 0 0 0 0 0 0 0 0 0 0 0 0 127 0" result="hardAlpha"/>
<feOffset dy="4"/>
<feGaussianBlur stdDeviation="2"/>
<feComposite in2="hardAlpha" operator="out"/>
<feColorMatrix type="matrix" values="0 0 0 0 0 0 0 0 0 0 0 0 0 0 0 0 0 0 0.25 0"/>
<feBlend mode="normal" in2="BackgroundImageFix" result="effect1_dropShadow_1_22"/>
<feBlend mode="normal" in="SourceGraphic" in2="effect1_dropShadow_1_22" result="shape"/>
</filter>
<clipPath id="clip0_1_22">
<rect width="133" height="177" fill="white" transform="translate(4)"/>
</clipPath>
</defs>
</svg>
