<svg width="66" height="109" viewBox="0 0 66 109" fill="none" xmlns="http://www.w3.org/2000/svg">
<path d="M3.36789 10V8.55L5.89789 6.21C6.05789 6.05667 6.17456 5.92333 6.24789 5.81C6.32789 5.69667 6.38122 5.59667 6.40789 5.51C6.43456 5.41667 6.44789 5.33 6.44789 5.25C6.44789 5.07667 6.39122 4.94333 6.27789 4.85C6.16456 4.75 5.99456 4.7 5.76789 4.7C5.56122 4.7 5.36456 4.75667 5.17789 4.87C4.99122 4.97667 4.84456 5.13667 4.73789 5.35L2.95789 4.46C3.21122 3.98 3.59122 3.59 4.09789 3.29C4.60456 2.99 5.23456 2.84 5.98789 2.84C6.54122 2.84 7.03122 2.93 7.45789 3.11C7.88456 3.29 8.21789 3.54333 8.45789 3.87C8.69789 4.19667 8.81789 4.58333 8.81789 5.03C8.81789 5.25667 8.78789 5.48333 8.72789 5.71C8.67456 5.93667 8.56122 6.17667 8.38789 6.43C8.21456 6.67667 7.95789 6.95333 7.61789 7.26L5.71789 8.99L5.34789 8.17H8.97789V10H3.36789ZM9.40188 8.8V7.3L12.3719 3H14.7919L11.9319 7.3L10.8319 6.97H16.2519V8.8H9.40188ZM13.0319 10V8.8L13.1019 6.97V5.9H15.3219V10H13.0319ZM21.9691 8.5L21.8391 5.91L24.4791 3H27.0491L24.0891 6.26L22.7791 7.6L21.9691 8.5ZM19.8591 10V3H22.1791V10H19.8591ZM24.4591 10L22.3991 7.28L23.9291 5.66L27.1891 10H24.4591ZM26.394 10L29.454 3H31.774L34.834 10H32.394L30.134 4.12H31.054L28.794 10H26.394ZM28.214 8.78L28.814 7.08H32.034L32.634 8.78H28.214ZM35.2106 10V3H38.5806C39.234 3 39.7973 3.10667 40.2706 3.32C40.7506 3.53333 41.1206 3.84 41.3806 4.24C41.6406 4.63333 41.7706 5.1 41.7706 5.64C41.7706 6.18 41.6406 6.64667 41.3806 7.04C41.1206 7.42667 40.7506 7.72333 40.2706 7.93C39.7973 8.13667 39.234 8.24 38.5806 8.24H36.5206L37.5706 7.27V10H35.2106ZM39.4006 10L37.6806 7.45H40.1806L41.9206 10H39.4006ZM37.5706 7.53L36.5206 6.46H38.4306C38.7573 6.46 38.9973 6.38667 39.1506 6.24C39.3106 6.09333 39.3906 5.89333 39.3906 5.64C39.3906 5.38667 39.3106 5.18667 39.1506 5.04C38.9973 4.89333 38.7573 4.82 38.4306 4.82H36.5206L37.5706 3.75V7.53ZM41.9018 10L44.9618 3H47.2818L50.3418 10H47.9018L45.6418 4.12H46.5618L44.3018 10H41.9018ZM43.7218 8.78L44.3218 7.08H47.5418L48.1418 8.78H43.7218ZM51.8869 10V4.83H49.8369V3H56.2969V4.83H54.2469V10H51.8869ZM59.5198 10.16C58.9332 10.16 58.3665 10.0933 57.8198 9.96C57.2732 9.82667 56.8232 9.65333 56.4698 9.44L57.2298 7.72C57.5632 7.91333 57.9332 8.07 58.3398 8.19C58.7532 8.30333 59.1532 8.36 59.5398 8.36C59.7665 8.36 59.9432 8.34667 60.0698 8.32C60.2032 8.28667 60.2998 8.24333 60.3598 8.19C60.4198 8.13 60.4498 8.06 60.4498 7.98C60.4498 7.85333 60.3798 7.75333 60.2398 7.68C60.0998 7.60667 59.9132 7.54667 59.6798 7.5C59.4532 7.44667 59.2032 7.39333 58.9298 7.34C58.6565 7.28 58.3798 7.20333 58.0998 7.11C57.8265 7.01667 57.5732 6.89333 57.3398 6.74C57.1132 6.58667 56.9298 6.38667 56.7898 6.14C56.6498 5.88667 56.5798 5.57333 56.5798 5.2C56.5798 4.76667 56.6998 4.37333 56.9398 4.02C57.1865 3.66 57.5498 3.37333 58.0298 3.16C58.5165 2.94667 59.1198 2.84 59.8398 2.84C60.3132 2.84 60.7798 2.89 61.2398 2.99C61.6998 3.09 62.1132 3.24333 62.4798 3.45L61.7698 5.16C61.4232 4.98667 61.0865 4.85667 60.7598 4.77C60.4398 4.68333 60.1265 4.64 59.8198 4.64C59.5932 4.64 59.4132 4.66 59.2798 4.7C59.1465 4.74 59.0498 4.79333 58.9898 4.86C58.9365 4.92667 58.9098 5 58.9098 5.08C58.9098 5.2 58.9798 5.29667 59.1198 5.37C59.2598 5.43667 59.4432 5.49333 59.6698 5.54C59.9032 5.58667 60.1565 5.63667 60.4298 5.69C60.7098 5.74333 60.9865 5.81667 61.2598 5.91C61.5332 6.00333 61.7832 6.12667 62.0098 6.28C62.2432 6.43333 62.4298 6.63333 62.5698 6.88C62.7098 7.12667 62.7798 7.43333 62.7798 7.8C62.7798 8.22667 62.6565 8.62 62.4098 8.98C62.1698 9.33333 61.8098 9.62 61.3298 9.84C60.8498 10.0533 60.2465 10.16 59.5198 10.16ZM21.9021 22.16C21.3355 22.16 20.8121 22.0733 20.3321 21.9C19.8588 21.72 19.4455 21.4667 19.0921 21.14C18.7455 20.8133 18.4755 20.4267 18.2821 19.98C18.0888 19.5333 17.9921 19.04 17.9921 18.5C17.9921 17.96 18.0888 17.4667 18.2821 17.02C18.4755 16.5733 18.7488 16.1867 19.1021 15.86C19.4555 15.5333 19.8721 15.2833 20.3521 15.11C20.8388 14.93 21.3721 14.84 21.9521 14.84C22.6455 14.84 23.2621 14.9567 23.8021 15.19C24.3488 15.4233 24.7988 15.7567 25.1521 16.19L23.6421 17.52C23.4221 17.2667 23.1821 17.0767 22.9221 16.95C22.6688 16.8167 22.3855 16.75 22.0721 16.75C21.8121 16.75 21.5755 16.79 21.3621 16.87C21.1555 16.95 20.9788 17.0667 20.8321 17.22C20.6855 17.3733 20.5721 17.5567 20.4921 17.77C20.4121 17.9833 20.3721 18.2267 20.3721 18.5C20.3721 18.76 20.4121 19 20.4921 19.22C20.5721 19.4333 20.6855 19.6167 20.8321 19.77C20.9788 19.9233 21.1521 20.0433 21.3521 20.13C21.5588 20.21 21.7888 20.25 22.0421 20.25C22.3088 20.25 22.5688 20.2067 22.8221 20.12C23.0755 20.0267 23.3455 19.87 23.6321 19.65L24.9521 21.27C24.5255 21.5567 24.0388 21.7767 23.4921 21.93C22.9455 22.0833 22.4155 22.16 21.9021 22.16ZM22.9021 20.97V18.31H24.9521V21.27L22.9021 20.97ZM29.6277 22.16C29.061 22.16 28.5344 22.07 28.0477 21.89C27.5677 21.71 27.151 21.4567 26.7977 21.13C26.4444 20.7967 26.1677 20.4067 25.9677 19.96C25.7744 19.5133 25.6777 19.0267 25.6777 18.5C25.6777 17.9667 25.7744 17.48 25.9677 17.04C26.1677 16.5933 26.4444 16.2067 26.7977 15.88C27.151 15.5467 27.5677 15.29 28.0477 15.11C28.5344 14.93 29.061 14.84 29.6277 14.84C30.201 14.84 30.7277 14.93 31.2077 15.11C31.6877 15.29 32.1044 15.5467 32.4577 15.88C32.811 16.2067 33.0844 16.5933 33.2777 17.04C33.4777 17.48 33.5777 17.9667 33.5777 18.5C33.5777 19.0267 33.4777 19.5133 33.2777 19.96C33.0844 20.4067 32.811 20.7967 32.4577 21.13C32.1044 21.4567 31.6877 21.71 31.2077 21.89C30.7277 22.07 30.201 22.16 29.6277 22.16ZM29.6277 20.25C29.8477 20.25 30.051 20.21 30.2377 20.13C30.431 20.05 30.5977 19.9367 30.7377 19.79C30.8844 19.6367 30.9977 19.4533 31.0777 19.24C31.1577 19.02 31.1977 18.7733 31.1977 18.5C31.1977 18.2267 31.1577 17.9833 31.0777 17.77C30.9977 17.55 30.8844 17.3667 30.7377 17.22C30.5977 17.0667 30.431 16.95 30.2377 16.87C30.051 16.79 29.8477 16.75 29.6277 16.75C29.4077 16.75 29.201 16.79 29.0077 16.87C28.821 16.95 28.6544 17.0667 28.5077 17.22C28.3677 17.3667 28.2577 17.55 28.1777 17.77C28.0977 17.9833 28.0577 18.2267 28.0577 18.5C28.0577 18.7733 28.0977 19.02 28.1777 19.24C28.2577 19.4533 28.3677 19.6367 28.5077 19.79C28.6544 19.9367 28.821 20.05 29.0077 20.13C29.201 20.21 29.4077 20.25 29.6277 20.25ZM34.4343 22V15H36.7943V20.17H39.9543V22H34.4343ZM40.6061 22V15H44.0561C44.8361 15 45.5228 15.1433 46.1161 15.43C46.7095 15.71 47.1728 16.11 47.5061 16.63C47.8395 17.15 48.0061 17.77 48.0061 18.49C48.0061 19.2167 47.8395 19.8433 47.5061 20.37C47.1728 20.89 46.7095 21.2933 46.1161 21.58C45.5228 21.86 44.8361 22 44.0561 22H40.6061ZM42.9661 20.16H43.9561C44.2895 20.16 44.5795 20.0967 44.8261 19.97C45.0795 19.8433 45.2761 19.6567 45.4161 19.41C45.5561 19.1567 45.6261 18.85 45.6261 18.49C45.6261 18.1367 45.5561 17.8367 45.4161 17.59C45.2761 17.3433 45.0795 17.1567 44.8261 17.03C44.5795 16.9033 44.2895 16.84 43.9561 16.84H42.9661V20.16Z" fill="black"/>
<path d="M45.0978 31L32.9761 47.5736L41.7474 42.0492L42.3638 41.6594L42.98 42.0541L45.5235 43.6854L45.0978 31ZM15.7288 34.9038L19.1141 56.3094L31.4355 48.5483L15.7288 34.9038ZM42.3549 45.1476L9.27503 65.9832L24.387 75.4371L57.3676 54.796L42.3549 45.1476ZM48.2921 52.4825L51.8468 54.6213L24.4434 71.6825L15.1556 65.8245L18.6755 63.6238L24.4436 67.2662L48.2921 52.4825ZM61.0958 55.4732L62.3585 59.4176L66 55.6988L61.0958 55.4732ZM58.9038 57.3043L25.4028 78.2735L24.5998 91.9592L62.3846 68.1892L58.9038 57.3043ZM12.4388 60.5156L0 64.4854L5.12145 67.6967L5.96767 65.0245L6.14127 64.4805L6.57542 64.2087L12.4388 60.5156ZM7.65593 68.4457L3.65443 81.0848L21.9653 92.6005L22.8202 77.9301L7.65593 68.4457ZM54.2295 76.7966L30.0292 92.0209L37.6548 109L42.9062 86.0397L62.6929 90.41L54.2295 76.7966ZM12.465 90.1027L9.76542 97.4584L17.699 93.3906L12.465 90.1027Z" fill="black"/>
</svg>
