<svg version="1.2" xmlns="http://www.w3.org/2000/svg" viewBox="0 0 57 80" width="57" height="80">
	<title>Group 59-svg</title>
	<defs>
		<clipPath clipPathUnits="userSpaceOnUse" id="cp1">
			<path d="m-56 0h80v80h-80z"/>
		</clipPath>
	</defs>
	<style>
		.s0 { fill: #000000 } 
	</style>
	<g id="Clip-Path" clip-path="url(#cp1)">
		<g>
			<path class="s0" d="m19.3 66.3q0 1.5-0.3 2.9-0.3 1.5-0.9 2.6l-3.5-1.6q0.5-0.9 0.8-1.8 0.2-1 0.2-1.9 0-0.8-0.3-1.3-0.2-0.5-0.8-0.5-0.4 0-0.7 0.3-0.2 0.4-0.2 1.3v1.9h-2.9l-3.7-3.6 1.6-0.5v7h-3.6v-10.4h2.9l3.7 3.6-1.3 2.3v-1.3q0-2.6 1.2-4 1.2-1.4 3-1.4 1.2 0 2.3 0.7 1.1 0.7 1.8 2.1 0.7 1.4 0.7 3.6zm0-12.3q0 1.4-0.3 2.9-0.3 1.5-0.9 2.6l-3.5-1.6q0.5-0.9 0.8-1.9 0.2-0.9 0.2-1.8 0-0.8-0.3-1.3-0.3-0.6-0.8-0.6-0.3 0-0.5 0.2-0.3 0.2-0.4 0.7-0.1 0.4-0.1 1.3v4l-8.5-0.7v-9.3h3.6v7.7l-2.1-2.4 5.5 0.4-2.1 2.4v-3.3q0-2.1 0.6-3.3 0.6-1.3 1.7-1.8 1-0.6 2.2-0.6 1.2 0 2.4 0.7 1.1 0.6 1.8 2.1 0.7 1.4 0.7 3.6zm0-21.1q0 1.6-0.5 3.1-0.5 1.4-1.5 2.5-1 1-2.3 1.6-1.4 0.6-3 0.6-1.6 0-3-0.6-1.3-0.6-2.3-1.6-1-1.1-1.5-2.5-0.5-1.5-0.5-3.1 0-2.1 0.7-3.7 0.7-1.6 2.1-2.6l2.6 3q-0.7 0.6-1.2 1.3-0.4 0.8-0.4 1.7 0 0.8 0.2 1.4 0.3 0.6 0.7 1 0.5 0.4 1.2 0.7 0.6 0.2 1.4 0.2 0.8 0 1.5-0.2 0.6-0.3 1.1-0.7 0.4-0.4 0.7-1 0.2-0.6 0.2-1.4 0-0.9-0.4-1.7-0.5-0.7-1.2-1.3l2.6-3q1.4 1 2.1 2.6 0.7 1.6 0.7 3.7zm-0.3-7.7h-14v-3.9l9.1-5.6v2.1l-9.1-5.5v-3.8l14-0.1v4.3l-7.5 0.1v-0.7l6.2 3.7v2.1l-6.2 3.9v-0.9h7.5z"/>
		</g>
	</g>
	<path class="s0" d="m46.9 19.4h10.1l-13.5-16.4-13.5 16.4h10.1v41.2h-10.1l13.5 16.4 13.5-16.4h-10.1v-13.6z"/>
</svg>