<svg version="1.2" xmlns="http://www.w3.org/2000/svg" viewBox="0 0 69 83" width="69" height="83">
	<title>image</title>
	<style>
		.s0 { fill: #000000 } 
	</style>
	<path fill-rule="evenodd" class="s0" d="m64.9 2.2c0.6 0 1.2 0.2 1.6 0.7 0.5 0.4 0.7 1 0.7 1.6v11.5c0 2.4-1 4.8-2.7 6.5-1.7 1.7-4.1 2.7-6.5 2.7h-46c-2.4 0-4.8-1-6.5-2.7-1.7-1.7-2.7-4.1-2.7-6.5v-11.5c0-0.6 0.2-1.2 0.7-1.6 0.4-0.5 1-0.7 1.6-0.7zm-27.6 48.3c0 0.6-0.2 1.2-0.7 1.6-0.4 0.5-1 0.7-1.6 0.7-0.6 0-1.2-0.2-1.6-0.7-0.5-0.4-0.7-1-0.7-1.6v-11.5h-18.4c-1.8 0-3.6-0.7-4.9-2-1.3-1.3-2-3.1-2-4.9v-2.3h55.2v2.3c0 1.8-0.7 3.6-2 4.9-1.3 1.3-3.1 2-4.9 2h-18.4zm-25.3 9.2c0-0.6 0.2-1.2 0.7-1.6 0.4-0.5 1-0.7 1.6-0.7h6.9c0.6 0 1.2 0.2 1.6 0.7 0.5 0.4 0.7 1 0.7 1.6 0 0.6-0.2 1.2-0.7 1.6-0.4 0.5-1 0.7-1.6 0.7h-6.9c-0.6 0-1.2-0.2-1.6-0.7-0.5-0.4-0.7-1-0.7-1.6zm43.7-2.3c0.6 0 1.2 0.2 1.6 0.7 0.5 0.4 0.7 1 0.7 1.6 0 0.6-0.2 1.2-0.7 1.6-0.4 0.5-1 0.7-1.6 0.7h-6.9c-0.6 0-1.2-0.2-1.6-0.7-0.5-0.4-0.7-1-0.7-1.6 0-0.6 0.2-1.2 0.7-1.6 0.4-0.5 1-0.7 1.6-0.7zm-18.4 2.3c0 0.6-0.2 1.2-0.7 1.6-0.4 0.5-1 0.7-1.6 0.7-0.6 0-1.2-0.2-1.6-0.7-0.5-0.4-0.7-1-0.7-1.6 0-0.6 0.2-1.2 0.7-1.6 0.4-0.5 1-0.7 1.6-0.7 0.6 0 1.2 0.2 1.6 0.7 0.5 0.4 0.7 1 0.7 1.6zm0 18.4c0 0.6-0.2 1.2-0.7 1.6-0.4 0.5-1 0.7-1.6 0.7-0.6 0-1.2-0.2-1.6-0.7-0.5-0.4-0.7-1-0.7-1.6v-9.2c0-0.6 0.2-1.2 0.7-1.6 0.4-0.5 1-0.7 1.6-0.7 0.6 0 1.2 0.2 1.6 0.7 0.5 0.4 0.7 1 0.7 1.6zm-7.6-15.4q0.4 0.3 0.5 0.7 0.2 0.4 0.2 0.9 0 0.5-0.2 0.9-0.1 0.4-0.5 0.7l-6.9 6.9c-0.4 0.5-1 0.7-1.6 0.7-0.6 0-1.2-0.2-1.6-0.7-0.5-0.4-0.7-1-0.7-1.6 0-0.6 0.2-1.2 0.7-1.6l6.9-6.9q0.3-0.4 0.7-0.5 0.4-0.2 0.9-0.2 0.5 0 0.9 0.2 0.4 0.1 0.7 0.5zm10.6 3.2c-0.5-0.4-0.7-1-0.7-1.6 0-0.6 0.2-1.2 0.7-1.6 0.4-0.5 1-0.7 1.6-0.7 0.6 0 1.2 0.2 1.6 0.7l6.9 6.9c0.5 0.4 0.7 1 0.7 1.6 0 0.6-0.2 1.2-0.7 1.6-0.4 0.5-1 0.7-1.6 0.7-0.6 0-1.2-0.2-1.6-0.7z"/>
</svg>