<svg width="37" height="56" viewBox="0 0 37 56" fill="none" xmlns="http://www.w3.org/2000/svg">
<g id="Warstwa_1" clip-path="url(#clip0_6_136)">
<g id="Group">
<path id="Vector" d="M9.52504 47.2652C9.50289 46.6176 9.47335 45.8302 9.47335 45.0428H9.4512C9.28137 45.7345 9.05248 46.4998 8.84573 47.1327L8.1812 49.2373H7.21392L6.63061 47.1474C6.4534 46.5146 6.26142 45.7419 6.1359 45.0428H6.12113C6.09159 45.7713 6.06206 46.6029 6.02514 47.2799L5.92915 49.333H4.78467L5.1317 43.9316H6.77828L7.3173 45.7345C7.48712 46.36 7.65695 47.0297 7.78247 47.6699H7.80462C7.95968 47.0444 8.14428 46.3306 8.32149 45.7272L8.9048 43.9316H10.5218L10.8246 49.333H9.61364L9.53242 47.2652H9.52504Z" fill="#FAF8F4"/>
<path id="Vector_2" d="M12.7075 47.7585C12.7518 48.2663 13.2539 48.5017 13.8298 48.5017C14.2507 48.5017 14.5903 48.4429 14.93 48.3398L15.0924 49.164C14.6863 49.3259 14.1916 49.4069 13.6526 49.4069C12.3014 49.4069 11.5334 48.6342 11.5334 47.4126C11.5334 46.4192 12.1611 45.3228 13.5418 45.3228C14.8266 45.3228 15.3139 46.3088 15.3139 47.2802C15.3139 47.4862 15.2918 47.6702 15.277 47.7585H12.7148H12.7075ZM14.1621 46.927C14.1621 46.6326 14.0292 46.1322 13.4606 46.1322C12.9437 46.1322 12.7296 46.5958 12.7001 46.927H14.1621Z" fill="#FAF8F4"/>
<path id="Vector_3" d="M16.0449 46.7062C16.0449 46.1322 16.0301 45.7495 16.0154 45.4184H17.0786L17.1229 46.1395H17.1525C17.3592 45.5729 17.8466 45.3301 18.2231 45.3301C18.3339 45.3301 18.393 45.3301 18.4816 45.3448V46.4928C18.393 46.478 18.2896 46.4633 18.1493 46.4633C17.6915 46.4633 17.3888 46.7062 17.3075 47.0815C17.2928 47.1624 17.2854 47.2581 17.2854 47.3537V49.3406H16.0523V46.7135L16.0449 46.7062Z" fill="#FAF8F4"/>
<path id="Vector_4" d="M20.4161 44.3217C20.4161 44.6602 20.1577 44.9325 19.7516 44.9325C19.3455 44.9325 19.1018 44.6602 19.1092 44.3217C19.1018 43.9685 19.3602 43.7036 19.7589 43.7036C20.1577 43.7036 20.4087 43.9685 20.4161 44.3217ZM19.1387 49.333V45.4108H20.3718V49.333H19.1387Z" fill="#FAF8F4"/>
<path id="Vector_5" d="M22.7493 44.2925V45.4184H23.6354V46.3161H22.7493V47.7364C22.7493 48.2073 22.8601 48.4281 23.2367 48.4281C23.3917 48.4281 23.5099 48.4134 23.6059 48.3987V49.3185C23.4508 49.3847 23.1554 49.4215 22.8084 49.4215C22.4097 49.4215 22.0774 49.2891 21.8854 49.083C21.6565 48.8475 21.5458 48.4722 21.5458 47.9203V46.3161H21.0142V45.4184H21.5458V44.5721L22.7567 44.2998L22.7493 44.2925Z" fill="#FAF8F4"/>
<path id="Vector_6" d="M28.0951 48.0745C28.0951 48.5897 28.1099 49.0017 28.1247 49.3329H27.054L26.9949 48.781H26.9728C26.8177 49.0238 26.4412 49.4212 25.7323 49.4212C24.9275 49.4212 24.3368 48.9208 24.3368 47.714V45.4107H25.5773V47.5153C25.5773 48.0819 25.7619 48.4278 26.1975 48.4278C26.5372 48.4278 26.7365 48.1923 26.8177 48.001C26.8473 47.9274 26.862 47.8317 26.862 47.736V45.4033H28.1025V48.0672L28.0951 48.0745Z" fill="#FAF8F4"/>
<path id="Vector_7" d="M29.0772 48.2662C29.3061 48.4061 29.7787 48.5606 30.1405 48.5606C30.5023 48.5606 30.6721 48.4355 30.6721 48.2295C30.6721 48.0234 30.5466 47.9351 30.0888 47.7806C29.2692 47.5083 28.9517 47.0668 28.9591 46.6032C28.9591 45.8747 29.5941 45.3228 30.5761 45.3228C31.0413 45.3228 31.4548 45.4258 31.6985 45.5435L31.4769 46.3824C31.2997 46.2867 30.9601 46.1616 30.613 46.1616C30.3103 46.1616 30.1405 46.2794 30.1405 46.4854C30.1405 46.6694 30.2955 46.7651 30.7829 46.9343C31.536 47.1919 31.8535 47.5672 31.8609 48.1485C31.8609 48.877 31.2776 49.4142 30.1405 49.4142C29.6236 49.4142 29.1584 49.3038 28.8557 49.1419L29.0772 48.2662Z" fill="#FAF8F4"/>
<path id="Vector_8" d="M5.79622 53.8438C5.77407 53.1962 5.74453 52.4088 5.74453 51.6214H5.72238C5.55255 52.3131 5.32366 53.0785 5.10953 53.7113L4.44499 55.8159H3.47772L2.8944 53.726C2.71719 53.0932 2.52521 52.3205 2.39969 51.6214H2.38492C2.35539 52.3499 2.32585 53.1815 2.28893 53.8585L2.19294 55.9116H1.04846L1.3955 50.5103H3.04208L3.58109 52.3131C3.75092 52.9386 3.92074 53.6083 4.04627 54.2485H4.06842C4.22348 53.623 4.40807 52.9092 4.58528 52.3058L5.1686 50.5103H6.78564L7.08837 55.9116H5.87744L5.79622 53.8438Z" fill="#FAF8F4"/>
<path id="Vector_9" d="M8.97858 54.3444C9.0155 54.8522 9.52498 55.0877 10.1009 55.0877C10.5218 55.0877 10.8614 55.0288 11.2011 54.9258L11.3635 55.75C10.9574 55.9118 10.4627 55.9928 9.9237 55.9928C8.57248 55.9928 7.80457 55.2201 7.80457 53.9986C7.80457 53.0051 8.43218 51.9087 9.81295 51.9087C11.0977 51.9087 11.585 52.8948 11.585 53.8661C11.585 54.0722 11.5629 54.2561 11.5407 54.3444H8.97858ZM10.4332 53.5129C10.4332 53.2185 10.3003 52.7182 9.73173 52.7182C9.21486 52.7182 9.00073 53.1818 8.9712 53.5129H10.4332Z" fill="#FAF8F4"/>
<path id="Vector_10" d="M12.316 53.2848C12.316 52.7108 12.3013 52.3281 12.2865 51.997H13.3498L13.3867 52.7182H13.4162C13.6156 52.1515 14.1103 51.9087 14.4869 51.9087C14.5976 51.9087 14.6567 51.9087 14.7453 51.9234V53.0714C14.6567 53.0567 14.5533 53.0419 14.413 53.0419C13.9552 53.0419 13.6525 53.2848 13.5713 53.6601C13.5565 53.741 13.5491 53.8367 13.5491 53.9323V55.9192H12.316V53.2921V53.2848Z" fill="#FAF8F4"/>
<path id="Vector_11" d="M18.3264 55.8162C18.1049 55.9118 17.6914 55.9928 17.2189 55.9928C15.9341 55.9928 15.1145 55.2201 15.1145 53.9912C15.1145 52.8433 15.9119 51.9087 17.3887 51.9087C17.7136 51.9087 18.068 51.9676 18.3338 52.0632L18.1418 52.9684C17.9942 52.9021 17.78 52.8506 17.4478 52.8506C16.798 52.8506 16.3771 53.3068 16.3845 53.9471C16.3845 54.6682 16.8718 55.0435 17.4699 55.0435C17.7653 55.0435 17.9868 54.992 18.1788 54.9258L18.3264 55.8235V55.8162Z" fill="#FAF8F4"/>
<path id="Vector_12" d="M21.3022 55.9119L21.2283 55.5219H21.2062C20.9477 55.831 20.5416 56.0002 20.0691 56.0002C19.2642 56.0002 18.7843 55.4262 18.7843 54.8007C18.7843 53.7852 19.7073 53.2922 21.1176 53.2996V53.2407C21.1176 53.0346 21.0068 52.7329 20.394 52.7329C19.9879 52.7329 19.5596 52.8728 19.2938 53.0273L19.0649 52.2399C19.3381 52.0854 19.8845 51.894 20.6081 51.894C21.9298 51.894 22.358 52.6667 22.358 53.5866V54.9479C22.358 55.3232 22.3728 55.6838 22.4171 55.9046H21.3022V55.9119ZM21.1545 54.0575C20.5047 54.0502 20.0026 54.2047 20.0026 54.6757C20.0026 54.9921 20.2167 55.1392 20.4899 55.1392C20.8001 55.1392 21.0511 54.9406 21.1323 54.6904C21.1471 54.6241 21.1545 54.5579 21.1545 54.4843V54.0575Z" fill="#FAF8F4"/>
<path id="Vector_13" d="M24.6544 50.8711V51.997H25.5404V52.8947H24.6544V54.315C24.6544 54.7859 24.7651 55.0067 25.1417 55.0067C25.2968 55.0067 25.4149 54.992 25.5109 54.9773V55.8971C25.3558 55.9633 25.0605 56.0001 24.7134 56.0001C24.3147 56.0001 23.9825 55.8677 23.7905 55.6616C23.5616 55.4262 23.4508 55.0509 23.4508 54.499V52.8947H22.9192V51.997H23.4508V51.1507L24.6618 50.8785L24.6544 50.8711Z" fill="#FAF8F4"/>
<path id="Vector_14" d="M30.0002 54.6536C30.0002 55.1688 30.0149 55.5808 30.0297 55.912H28.959L28.9 55.3601H28.8778C28.7228 55.6029 28.3462 56.0003 27.6374 56.0003C26.8325 56.0003 26.2418 55.4999 26.2418 54.2931V51.9898H27.4823V54.0944C27.4823 54.661 27.6669 55.0069 28.1025 55.0069C28.4422 55.0069 28.6415 54.7714 28.7228 54.5801C28.7523 54.5065 28.7597 54.4108 28.7597 54.3151V51.9824H30.0002V54.6463V54.6536Z" fill="#FAF8F4"/>
<path id="Vector_15" d="M30.9969 53.2407C30.9969 52.755 30.9822 52.3355 30.9674 51.9897H32.0085L32.0676 52.5195H32.0897C32.2596 52.2693 32.6066 51.9014 33.2933 51.9014C33.8028 51.9014 34.2089 52.1589 34.3861 52.5637H34.4009C34.5485 52.365 34.7257 52.2031 34.9103 52.0927C35.1318 51.9676 35.3755 51.9014 35.6635 51.9014C36.424 51.9014 37.0073 52.4312 37.0073 53.6012V55.9119H35.8038V53.7778C35.8038 53.2112 35.6192 52.8801 35.2205 52.8801C34.9325 52.8801 34.7331 53.0714 34.6519 53.3069C34.6224 53.3952 34.6002 53.5203 34.6002 53.6233V55.9192H33.3967V53.7263C33.3967 53.2259 33.2195 52.8948 32.8281 52.8948C32.5106 52.8948 32.326 53.1376 32.2522 53.3363C32.2153 53.432 32.2005 53.5424 32.2005 53.638V55.9192H30.9969V53.248V53.2407Z" fill="#FAF8F4"/>
</g>
<g id="Group_2">
<path id="Vector_16" d="M17.7358 11.0453C17.7062 11.1483 17.6472 11.2366 17.5733 11.3176C17.5216 11.3691 17.4699 11.4059 17.4109 11.4353C17.2041 11.45 17.0048 11.4648 16.8054 11.4868H16.798C16.702 11.4574 16.606 11.3985 16.5248 11.3176L13.5492 8.35201L9.84252 4.65792C9.61363 4.4298 9.57671 4.09866 9.70223 3.82638C9.73915 3.73072 9.79084 3.63506 9.87206 3.55411C10.16 3.26712 10.6252 3.26712 10.9132 3.55411L13.5566 6.18854L17.5955 10.2211C17.8244 10.4419 17.8687 10.773 17.7358 11.0453Z" fill="#FAF8F4"/>
<path id="Vector_17" d="M15.9267 12.8559C15.8972 12.9368 15.8529 13.0251 15.779 13.0914C15.5501 13.1576 15.3212 13.2385 15.0997 13.3268C14.952 13.2974 14.8191 13.2312 14.7158 13.1208L6.25397 4.68767C6.02508 4.46691 5.98077 4.13577 6.11368 3.86349C6.1506 3.76047 6.20229 3.66481 6.28351 3.59122C6.57148 3.30423 7.03665 3.30423 7.32462 3.59122L15.7864 12.0243C16.0153 12.2451 16.0522 12.5836 15.9267 12.8559Z" fill="#FAF8F4"/>
<path id="Vector_18" d="M13.9995 13.8566C13.5417 14.1141 13.1135 14.4085 12.7221 14.7543L2.02306 4.09151C1.79417 3.86339 1.75725 3.53225 1.88277 3.25998C1.91969 3.15695 1.97138 3.06865 2.0526 2.9877C2.34057 2.70071 2.80574 2.70071 3.09371 2.9877L13.97 13.8271C13.97 13.8271 13.9847 13.8492 13.9995 13.8566Z" fill="#FAF8F4"/>
<path id="Vector_19" d="M11.9764 15.4533C11.6294 15.8285 11.3119 16.2406 11.0313 16.6822L0.206699 5.89425C-0.0148133 5.66613 -0.0591159 5.33499 0.066408 5.06271C0.103327 4.96705 0.155013 4.87138 0.236234 4.79044C0.524201 4.50345 0.989378 4.50345 1.27734 4.79044L11.9764 15.4533Z" fill="#FAF8F4"/>
<path id="Vector_20" d="M10.4996 17.6611L10.1009 18.6913C10.0049 18.7355 9.90153 18.7576 9.79816 18.7576C9.60618 18.7576 9.42159 18.6913 9.27391 18.5442L0.812127 10.111C0.58323 9.88293 0.546311 9.55178 0.671835 9.27951C0.708754 9.18384 0.76044 9.08818 0.841662 9.00724C1.12963 8.72024 1.5948 8.72024 1.88277 9.00724L10.3446 17.4404C10.411 17.5066 10.4627 17.5802 10.4996 17.6611Z" fill="#FAF8F4"/>
<path id="Vector_21" d="M8.63162 19.3828C8.56517 19.6993 8.52086 20.0231 8.5061 20.3542H8.49871C8.35104 20.5014 8.17383 20.5676 7.98185 20.5676C7.78987 20.5676 7.60528 20.5014 7.46499 20.3542L3.75834 16.6675L0.775303 13.6945C0.55379 13.4664 0.509488 13.1353 0.635012 12.863C0.67193 12.76 0.723617 12.6717 0.804838 12.5907C1.0928 12.3037 1.55798 12.3037 1.84595 12.5907L5.92178 16.6528L8.53563 19.2504C8.57255 19.2945 8.60947 19.3387 8.63162 19.3828Z" fill="#FAF8F4"/>
<path id="Vector_22" d="M26.1311 24.2397C26.1385 24.4163 26.2123 24.5782 26.3378 24.7033L34.7996 33.1364C34.9399 33.2836 35.1319 33.3572 35.3165 33.3572C35.5011 33.3572 35.7005 33.2836 35.8407 33.1364C35.922 33.0628 35.9736 32.9672 36.0106 32.8715C36.1361 32.5919 36.0992 32.2607 35.8703 32.04L27.4085 23.6068C27.1205 23.3199 26.6554 23.3199 26.36 23.6068L26.3378 23.6289V23.6436L26.1311 24.2397Z" fill="#FAF8F4"/>
<path id="Vector_23" d="M26.8029 4.68741C26.766 4.78307 26.7143 4.87873 26.6331 4.95232L22.5351 9.03642L19.9877 11.5825C19.6924 11.5237 19.3897 11.4795 19.0869 11.4574C18.9835 11.4501 18.8876 11.4427 18.7842 11.4354C18.6734 11.2293 18.666 10.9938 18.7694 10.7878C18.799 10.6848 18.8506 10.5965 18.9319 10.5155L22.4687 6.99805L22.764 6.7037L25.6215 3.85587C25.9095 3.56888 26.3747 3.56888 26.6627 3.85587C26.8916 4.07663 26.9285 4.41513 26.8029 4.68741Z" fill="#FAF8F4"/>
<path id="Vector_24" d="M8.63162 22.9743C8.60209 23.0258 8.56517 23.0773 8.52087 23.1214L1.83857 29.7811C1.69089 29.9283 1.49891 29.9945 1.31432 29.9945C1.12973 29.9945 0.937748 29.9283 0.790073 29.7811C0.568561 29.5603 0.524258 29.2218 0.649782 28.9496C0.686701 28.8539 0.738387 28.7582 0.819608 28.6773L7.50191 22.0176C7.77511 21.7454 8.21075 21.7306 8.49871 21.9735C8.52087 22.3193 8.56517 22.6505 8.63162 22.9743Z" fill="#FAF8F4"/>
<path id="Vector_25" d="M10.4775 24.696C10.448 24.7843 10.4037 24.8579 10.3372 24.9241L1.87543 33.3573C1.72776 33.5044 1.53578 33.5707 1.35119 33.5707C1.16659 33.5707 0.974614 33.5044 0.826939 33.3573C0.605426 33.1291 0.561123 32.798 0.686647 32.5257C0.723566 32.4301 0.775252 32.3344 0.856474 32.2534L9.31826 23.8203C9.525 23.6143 9.82035 23.5554 10.0788 23.6511C10.1895 24.0117 10.3224 24.3575 10.4775 24.696Z" fill="#FAF8F4"/>
<path id="Vector_26" d="M11.9543 26.9255L1.26996 37.5736C1.12229 37.7208 0.937694 37.787 0.745717 37.787C0.553739 37.787 0.369145 37.7208 0.22147 37.5736C-4.28315e-05 37.3455 -0.0443454 37.0144 0.0811785 36.7421C0.118097 36.6464 0.169784 36.5508 0.251005 36.4698L11.0387 25.7261C11.3045 26.1529 11.6146 26.5576 11.9543 26.9255Z" fill="#FAF8F4"/>
<path id="Vector_27" d="M13.9701 28.53L3.07902 39.3841C2.93873 39.5239 2.74675 39.5975 2.56216 39.5975C2.37756 39.5975 2.1782 39.5239 2.03791 39.3841C1.80901 39.156 1.76471 38.8249 1.89762 38.5526C1.93454 38.4496 1.98622 38.3613 2.06744 38.2803L12.7296 27.6543C13.1135 27.9854 13.527 28.2798 13.9701 28.53Z" fill="#FAF8F4"/>
<path id="Vector_28" d="M15.0776 29.0596H15.0702C14.9595 29.089 14.8487 29.1552 14.7601 29.2435L6.29833 37.6767C6.21711 37.7576 6.16542 37.8533 6.1285 37.9489C6.00298 38.2212 6.0399 38.5523 6.26879 38.7805C6.40908 38.9203 6.60106 38.9939 6.79304 38.9939C6.98502 38.9939 7.16961 38.9203 7.3099 38.7805L15.7717 30.3473C15.8529 30.2664 15.9046 30.1707 15.9415 30.0751C16.0523 29.8396 16.0375 29.56 15.8824 29.3392L15.0776 29.0596Z" fill="#FAF8F4"/>
<path id="Vector_29" d="M36.0475 29.2953C36.0106 29.391 35.9589 29.4867 35.8777 29.5603C35.73 29.7074 35.5454 29.781 35.3534 29.781C35.1614 29.781 34.9768 29.7074 34.8366 29.5603L30.9232 25.6675L28.1469 22.9006C28.0213 22.7681 27.9549 22.6136 27.9475 22.4517V22.4223C27.9623 22.3413 27.9697 22.2604 27.9697 22.1794C27.977 22.1353 27.9918 22.1059 28.0066 22.0691C28.0435 21.9734 28.0952 21.8777 28.1764 21.7968C28.4644 21.5098 28.9296 21.5098 29.2175 21.7968L33.1161 25.6822L35.9072 28.4638C36.1287 28.6846 36.173 29.0157 36.0475 29.2953Z" fill="#FAF8F4"/>
<path id="Vector_30" d="M36.616 37.0807C36.5791 37.1837 36.5274 37.2794 36.4462 37.353C36.2985 37.5001 36.114 37.5737 35.922 37.5737C35.73 37.5737 35.5454 37.5001 35.4051 37.353L24.6765 26.6681C25.0236 26.2781 25.3189 25.8513 25.5773 25.395C25.5773 25.395 25.5823 25.3999 25.5921 25.4097L36.4758 36.2565C36.6973 36.4773 36.7416 36.8084 36.616 37.0807Z" fill="#FAF8F4"/>
<path id="Vector_31" d="M34.7996 38.8908C34.7627 38.9864 34.711 39.0821 34.6372 39.163C34.4895 39.3029 34.2975 39.3764 34.1129 39.3764C33.9283 39.3764 33.7364 39.3029 33.5887 39.163L22.7419 28.3457C23.185 28.0734 23.5985 27.757 23.975 27.4111L34.6593 38.0592C34.8882 38.2873 34.9325 38.6185 34.7996 38.8908Z" fill="#FAF8F4"/>
<path id="Vector_32" d="M30.5687 38.2878C30.5318 38.3908 30.4801 38.4791 30.3989 38.56C30.2586 38.7072 30.0666 38.7734 29.882 38.7734C29.6974 38.7734 29.5054 38.7072 29.3578 38.56L20.896 30.1269C20.6671 29.8988 20.6302 29.5677 20.7557 29.2954C20.7631 29.288 20.7631 29.2733 20.7705 29.266C21.1101 29.1629 21.4424 29.0378 21.7599 28.8833C21.8337 28.9127 21.9002 28.9569 21.9666 29.0231L30.4284 37.4562C30.6573 37.6844 30.7016 38.0155 30.5687 38.2878Z" fill="#FAF8F4"/>
<path id="Vector_33" d="M26.9802 38.3246C26.9433 38.4276 26.8916 38.5159 26.8104 38.5969C26.6701 38.744 26.4781 38.8103 26.2862 38.8103C26.0942 38.8103 25.9096 38.744 25.7693 38.5969L22.6386 35.4841L22.3432 35.1898L19.0796 31.9372C18.8581 31.7091 18.8138 31.3779 18.9393 31.1057C18.9689 31.0321 19.0132 30.9511 19.0722 30.8849C19.183 30.8775 19.2864 30.8702 19.3897 30.8555C19.6186 30.826 19.8402 30.7966 20.0543 30.7524C20.0838 30.7745 20.1207 30.804 20.1503 30.8334L22.5352 33.2103L22.7124 33.3869L26.84 37.5004C27.0615 37.7212 27.1058 38.0523 26.9802 38.3246Z" fill="#FAF8F4"/>
<path id="Vector_34" d="M30.3915 4.71719C30.3619 4.81285 30.3029 4.90852 30.229 4.98946L21.7672 13.4226C21.7672 13.4226 21.7156 13.4667 21.686 13.4888C21.3168 13.3122 20.9329 13.1724 20.5342 13.062C20.4899 12.9075 20.512 12.7382 20.5785 12.591C20.6154 12.4954 20.6671 12.3997 20.7483 12.3188L29.2101 3.88565C29.498 3.59866 29.9632 3.59866 30.2512 3.88565C30.4801 4.11377 30.5244 4.44492 30.3915 4.71719Z" fill="#FAF8F4"/>
<path id="Vector_35" d="M34.6224 4.11368C34.5929 4.2167 34.5338 4.305 34.46 4.38595L23.8864 14.9163C23.5172 14.5778 23.1111 14.2761 22.6829 14.0112L33.441 3.28214C33.729 2.99515 34.1941 2.99515 34.4821 3.28214C34.711 3.51026 34.7553 3.8414 34.6224 4.11368Z" fill="#FAF8F4"/>
<path id="Vector_36" d="M36.4388 5.92373C36.4019 6.0194 36.3502 6.11506 36.269 6.19601L25.5183 16.9103C25.2672 16.4688 24.9645 16.0567 24.6322 15.6741L35.2574 5.0922C35.5454 4.80521 36.0106 4.80521 36.2985 5.0922C36.5274 5.32032 36.5644 5.65146 36.4388 5.92373Z" fill="#FAF8F4"/>
<path id="Vector_37" d="M35.8333 10.1405C35.7964 10.2362 35.7447 10.3319 35.6635 10.4128L27.2017 18.8459C27.0614 18.9857 26.8694 19.0593 26.6848 19.0593C26.5888 19.0593 26.5002 19.0446 26.4116 19.0078C26.3156 18.6472 26.1901 18.294 26.0498 17.9555C26.0793 17.8746 26.1236 17.8083 26.1901 17.7421L34.6519 9.30899C34.9398 9.022 35.405 9.022 35.693 9.30899C35.9219 9.53711 35.9588 9.86826 35.8333 10.1405Z" fill="#FAF8F4"/>
<path id="Vector_38" d="M35.8703 13.7167C35.8334 13.8197 35.7817 13.9154 35.7004 13.9889L32.8798 16.8L29.0181 20.656C28.8705 20.7958 28.6859 20.8694 28.4939 20.8694C28.3241 20.8694 28.1542 20.8105 28.014 20.6928C27.9992 20.3469 27.9623 20.001 27.9032 19.6699C27.9327 19.6331 27.9623 19.5889 27.9992 19.5521L30.7755 16.7853L34.6815 12.8925C34.9695 12.6055 35.442 12.6055 35.73 12.8925C35.9515 13.1133 35.9958 13.4444 35.8703 13.7167Z" fill="#FAF8F4"/>
<path id="Vector_39" d="M17.3813 30.8996H17.3887C17.4699 30.9364 17.5512 30.9879 17.6176 31.0541C17.8391 31.2822 17.8834 31.6134 17.7579 31.8857C17.721 31.9813 17.6693 32.077 17.5881 32.1579L13.4384 36.2862L10.8984 38.8176C10.7581 38.9648 10.5661 39.031 10.3815 39.031C10.1969 39.031 10.005 38.9648 9.85729 38.8176C9.6284 38.5895 9.59148 38.2583 9.717 37.9861C9.75392 37.8904 9.80561 37.7947 9.88683 37.7138L13.4384 34.1742L16.5691 31.0541C16.6725 30.9585 16.7906 30.8922 16.9162 30.8628H16.9235L17.3813 30.8996Z" fill="#FAF8F4"/>
</g>
<path id="Vector_40" d="M31.1003 21.7008C30.805 21.4138 30.8124 20.9428 31.1077 20.6558L33.7954 18.0655C34.2754 17.6019 33.9505 16.7998 33.2859 16.7998H32.8798L31.0708 16.7851H30.7755C30.4284 16.7704 30.1848 16.5423 30.1035 16.2553C30.074 16.1596 30.0666 16.0713 30.0814 15.9757C30.0888 15.8138 30.1552 15.6592 30.2881 15.5268L32.075 13.768C32.5033 13.3412 32.267 12.6422 31.7206 12.5244C31.6689 12.5171 31.6172 12.5097 31.5581 12.5097H30.2365L29.9411 12.5023L28.1321 12.4876H27.7112C27.4159 12.4876 27.1648 12.3184 27.0467 12.0682C27.0098 12.0019 26.9876 11.921 26.9802 11.84C26.9728 11.8106 26.9728 11.7812 26.9728 11.7444L27.0024 9.99301V9.69866H27.0098L27.0319 8.47711V8.1754L27.0393 8.02086C27.0467 7.49103 26.5446 7.17461 26.0942 7.29971C25.9834 7.32914 25.8727 7.38801 25.7767 7.48368L24.0119 9.2277C23.916 9.32336 23.7978 9.38959 23.6797 9.41167C23.3474 9.50733 22.9856 9.34544 22.8305 9.04373C22.801 8.9775 22.7715 8.89655 22.7715 8.80825C22.7567 8.77146 22.7567 8.74202 22.7567 8.70523V7.00536L22.7641 6.1959C22.7641 5.54097 21.974 5.20983 21.5089 5.67343L18.7769 8.36672C18.4815 8.66107 18.009 8.65372 17.7284 8.35937L15.1219 5.68079C14.6641 5.20247 13.8593 5.52625 13.8519 6.18854V8.35937L13.8445 8.66107C13.8371 8.99222 13.6378 9.23506 13.3793 9.33808C13.3055 9.36751 13.2169 9.38959 13.1357 9.38959C12.9437 9.40431 12.737 9.33808 12.5819 9.17619L10.8098 7.39537C10.3889 6.97592 9.70961 7.19669 9.5767 7.71916C9.55455 7.77803 9.54717 7.84425 9.54717 7.91048V9.13203L9.53979 9.42638V11.2881L9.5324 11.7444C9.5324 12.0093 9.38473 12.2448 9.1706 12.3772C9.10414 12.414 9.03769 12.4435 8.96385 12.4582H8.95647C8.8974 12.4729 8.83833 12.4803 8.77926 12.4803L7.07361 12.4508H6.77088L5.59686 12.4287H5.29413L5.03569 12.4214C4.5336 12.4067 4.2161 12.8703 4.3047 13.3044C4.33424 13.4369 4.39331 13.562 4.50406 13.6724L6.25401 15.4311C6.33524 15.5121 6.39431 15.6077 6.41646 15.7034C6.5346 16.0198 6.40907 16.3804 6.12849 16.5644C6.06942 16.6012 5.99558 16.6379 5.92175 16.66C5.85529 16.6747 5.78884 16.6821 5.72238 16.6821H4.06104L3.21191 16.6747C2.55475 16.6674 2.2151 17.4621 2.68028 17.9257L5.39012 20.6485C5.67808 20.9428 5.6707 21.4138 5.37535 21.6934L2.68766 24.291C2.2151 24.7473 2.53999 25.5494 3.19714 25.5567H5.68546C5.79622 25.5641 5.89959 25.5862 5.99558 25.645C6.06204 25.6671 6.12111 25.7113 6.17279 25.7628C6.46814 26.013 6.52721 26.4987 6.20233 26.8224L4.41546 28.5885C4.31947 28.6842 4.2604 28.7946 4.23087 28.905C4.19395 29.008 4.19395 29.1184 4.20871 29.2214C4.2604 29.5599 4.5336 29.8469 4.93232 29.8469H6.8964H7.19175H8.77926C8.84571 29.8542 8.91217 29.869 8.97862 29.891C9.04507 29.9058 9.11153 29.9425 9.17798 29.9867H9.18537C9.38473 30.1192 9.51763 30.3473 9.51025 30.6048V31.1641L9.47333 33.0185V33.3128L9.46595 33.3202L9.45118 34.3357C9.45118 34.3946 9.45856 34.4535 9.47333 34.5123C9.4881 34.5933 9.51763 34.6595 9.56194 34.7257C9.79083 35.101 10.3446 35.2261 10.7064 34.8655L12.4711 33.1215C12.6705 32.9228 12.9437 32.8713 13.1726 32.9376C13.2464 32.9523 13.3129 32.9891 13.3793 33.0259H13.3867C13.5861 33.151 13.7338 33.3717 13.7338 33.6514V34.1738L13.719 36.0061V36.1533C13.719 36.2048 13.7264 36.2416 13.7338 36.2858C13.8297 36.8598 14.546 37.11 14.9816 36.6831L17.7136 33.9825C18.0016 33.6955 18.4741 33.7029 18.7621 33.9972L21.3612 36.6758C21.8264 37.1467 22.6312 36.823 22.6312 36.168V35.4837L22.6386 35.182V33.6881C22.646 33.5778 22.6681 33.4747 22.7124 33.3864C22.7419 33.3202 22.7789 33.2613 22.8305 33.2098C23.0816 32.9081 23.5763 32.8419 23.9086 33.173L25.6733 34.9538C25.7471 35.0274 25.821 35.0789 25.9022 35.1157C26.0129 35.1599 26.1311 35.182 26.2492 35.1672C26.611 35.1452 26.9359 34.8582 26.9359 34.4387V33.9899L26.9433 33.6955V32.5549L26.9507 32.2532V30.6048C26.9581 30.5386 26.9654 30.4724 26.9876 30.4135C27.0024 30.3399 27.0393 30.2737 27.0762 30.2075C27.2165 30.0014 27.4454 29.869 27.7038 29.8763H28.1985L30.1035 29.9131H30.4063L31.4474 29.9352C31.4843 29.9352 31.5286 29.9352 31.5655 29.9205C31.6467 29.9131 31.7206 29.891 31.7944 29.8542C32.2153 29.6482 32.363 29.0595 31.9864 28.6842L30.2365 26.9255C30.0371 26.7268 29.9854 26.4692 30.0445 26.2337C30.0592 26.1602 30.0888 26.0939 30.1331 26.0277C30.2512 25.8217 30.4727 25.6671 30.7607 25.6671H31.2259L33.1161 25.6818H33.2786C33.3229 25.6818 33.3598 25.6818 33.4041 25.6745C33.9726 25.5788 34.2384 24.865 33.8028 24.4235L31.1003 21.7008ZM27.1427 25.2182C27.1131 25.2845 27.0836 25.3507 27.0467 25.4169C26.9285 25.6818 26.7956 25.9247 26.6406 26.1675C26.6036 26.2264 26.5667 26.2926 26.5298 26.3515C26.3009 26.7341 26.0351 27.0874 25.7397 27.4332C25.6954 27.4921 25.6511 27.5436 25.6068 27.5951C25.4222 27.8012 25.2376 27.9925 25.0457 28.1838C24.994 28.2353 24.9423 28.2795 24.8906 28.3236C24.5657 28.6253 24.2187 28.9123 23.8495 29.1625C23.7904 29.2067 23.7314 29.2435 23.6723 29.2803C23.4434 29.4422 23.2071 29.5893 22.9635 29.7218C22.897 29.7586 22.8379 29.788 22.7715 29.8248C22.3506 30.0456 21.915 30.2295 21.4572 30.3841C21.3833 30.4061 21.3095 30.4356 21.2357 30.4577C20.9255 30.5607 20.608 30.6416 20.2831 30.7079C20.2093 30.7226 20.1355 30.7373 20.0616 30.752C19.8475 30.7962 19.626 30.8256 19.3971 30.855C19.2937 30.8697 19.1904 30.8771 19.0796 30.8845C18.8064 30.9065 18.5332 30.9213 18.2526 30.9213C18.0606 30.9213 17.876 30.9139 17.6915 30.8992H17.6841C17.529 30.8992 17.374 30.8845 17.2263 30.8624H17.2189C16.7316 30.8182 16.2664 30.7299 15.8086 30.6122C15.7348 30.5901 15.6535 30.5754 15.5797 30.546C15.1145 30.4209 14.6715 30.259 14.2432 30.0603C14.1768 30.0308 14.1103 30.0014 14.0439 29.9646C13.7707 29.8469 13.5049 29.7071 13.2538 29.5525C13.1947 29.5157 13.1357 29.4789 13.0766 29.4348C12.7 29.214 12.3456 28.9565 12.006 28.6768C11.9543 28.6327 11.9026 28.5885 11.8509 28.537C11.6294 28.3531 11.4226 28.1617 11.2233 27.9557C11.179 27.9042 11.1273 27.8527 11.083 27.8012C10.7876 27.4847 10.5144 27.1462 10.2634 26.793C10.2191 26.7341 10.1822 26.6753 10.1453 26.6164C9.97543 26.3736 9.82037 26.1307 9.68008 25.8732C9.64316 25.8069 9.61362 25.7481 9.5767 25.6818C9.36258 25.2771 9.17798 24.8577 9.02292 24.4235C9.00077 24.3499 8.97124 24.2763 8.94909 24.2027C8.84571 23.8937 8.76449 23.5772 8.69804 23.2461C8.67589 23.1578 8.65374 23.0621 8.63897 22.9738C8.57251 22.65 8.52821 22.3189 8.50606 21.9804C8.50606 21.9215 8.49868 21.8774 8.49868 21.8259C8.47653 21.6125 8.46914 21.3917 8.46914 21.1709C8.46914 20.9502 8.47652 20.7441 8.49129 20.5381C8.49868 20.4792 8.49868 20.4203 8.50606 20.3615L8.51344 20.3541C8.52821 20.023 8.57251 19.6992 8.63897 19.3828C8.65374 19.2871 8.6685 19.1914 8.69065 19.1031C8.75711 18.7941 8.83833 18.4923 8.93432 18.198C8.95647 18.1244 8.97862 18.0508 9.00816 17.9772C9.16321 17.521 9.34781 17.0868 9.56932 16.6674C9.60624 16.6012 9.63578 16.5423 9.67269 16.4761C9.8056 16.2332 9.95328 15.9904 10.1157 15.7623C10.1526 15.7034 10.1896 15.6445 10.2339 15.5856C10.4849 15.2177 10.7729 14.8719 11.0756 14.5481C11.1199 14.4966 11.1642 14.445 11.2159 14.3935C11.4079 14.2022 11.6072 14.0109 11.814 13.8416C11.8657 13.7901 11.9174 13.746 11.969 13.7018C12.3087 13.4075 12.6705 13.1499 13.0545 12.9144C13.1135 12.8776 13.18 12.8408 13.239 12.804C13.4827 12.6495 13.7264 12.5171 13.9922 12.3993C14.0586 12.3625 14.1251 12.3331 14.1916 12.3036C14.6272 12.0976 15.0924 11.9284 15.5649 11.7959C15.6388 11.7738 15.72 11.7517 15.7938 11.7297C16.2221 11.6193 16.6503 11.5383 17.1008 11.4868H17.1081C17.3075 11.4648 17.5069 11.45 17.7136 11.4353C17.8908 11.428 18.068 11.4206 18.2526 11.4206C18.4372 11.4206 18.6144 11.428 18.7916 11.4353C18.895 11.4427 18.991 11.45 19.0944 11.4574C19.3971 11.4795 19.6998 11.5236 19.9952 11.5825C20.0764 11.5899 20.165 11.6119 20.2462 11.6266C20.5785 11.6929 20.896 11.7738 21.2061 11.8768C21.28 11.8989 21.3538 11.9284 21.4276 11.9504C21.8707 12.0976 22.2989 12.2816 22.7124 12.4876C22.7789 12.5244 22.8453 12.5538 22.9044 12.5906C23.1628 12.7305 23.4065 12.8776 23.6501 13.0469C23.7092 13.0837 23.7683 13.1205 23.8274 13.1646C24.1818 13.4075 24.5288 13.6797 24.8463 13.9741C24.898 14.0182 24.9497 14.0697 25.0014 14.1139C25.2081 14.3126 25.4075 14.5113 25.5921 14.732C25.6438 14.7835 25.6881 14.8351 25.7324 14.8866C26.0129 15.2177 26.2714 15.5636 26.5077 15.9315C26.5446 15.9904 26.5815 16.0566 26.6184 16.1155C26.7735 16.3657 26.9138 16.6306 27.0467 16.8955C27.0836 16.9617 27.1131 17.028 27.1427 17.0942C27.342 17.5136 27.5045 17.9625 27.6374 18.4188C27.6595 18.4923 27.6817 18.5733 27.7038 18.6469C27.7924 18.978 27.8663 19.3165 27.9106 19.6697C27.9696 20.0009 28.0066 20.3468 28.0213 20.6926C28.0287 20.8545 28.0361 21.009 28.0361 21.1709C28.0361 21.5094 28.0213 21.8406 27.977 22.1717C27.977 22.26 27.9696 22.341 27.9549 22.4219V22.4514C27.9032 22.8561 27.822 23.2387 27.726 23.6214C27.7038 23.695 27.6817 23.7759 27.6595 23.8495C27.5266 24.3205 27.3568 24.7841 27.15 25.2182H27.1427Z" fill="#996E51"/>
<path id="Vector_41" d="M16.3476 0V4.57714L13.7485 2.39895C13.5491 2.2297 13.4532 1.96478 13.4975 1.70723L13.6968 0.603417C13.7633 0.250197 14.066 0 14.4204 0H16.3402L16.3476 0Z" fill="#234496"/>
<path id="Vector_42" d="M19.2716 0V4.56978L18.2748 5.40131C18.0016 5.62944 17.5954 5.62944 17.3222 5.40131L16.3402 4.57714V0H19.2642H19.2716Z" fill="#FFE104"/>
<path id="Vector_43" d="M21.8559 2.39895L19.2716 4.56978V0H21.184C21.5458 0 21.8485 0.257556 21.9076 0.610775L22.0996 1.71459C22.1439 1.97214 22.0479 2.23706 21.8485 2.40631L21.8559 2.39895Z" fill="#E00914"/>
</g>
<defs>
<clipPath id="clip0_6_136">
<rect width="37" height="56" fill="white"/>
</clipPath>
</defs>
</svg>
