<svg xmlns="http://www.w3.org/2000/svg" width="44" height="67" viewBox="0 0 44 67" fill="none">
    <g clip-path="url(#clip0_46_998)">
        <path d="M11.3271 56.429C11.3008 55.6559 11.2657 54.7159 11.2657 53.7758H11.2393C11.0374 54.6016 10.7652 55.5153 10.5193 56.2709L9.72906 58.7835H8.57879L7.88511 56.2885C7.67438 55.5329 7.44608 54.6104 7.29681 53.7758H7.27924C7.24412 54.6456 7.209 55.6383 7.1651 56.4466L7.05095 58.8977H5.68994L6.10263 52.4492H8.06073L8.70172 54.6017C8.90367 55.3484 9.10563 56.1479 9.2549 56.9122H9.28124C9.46563 56.1655 9.68515 55.3133 9.89589 54.5929L10.5896 52.4492H12.5125L12.8725 58.8977H11.4325L11.3359 56.429H11.3271Z" fill="#62686D"/>
        <path d="M15.1119 57.0174C15.1646 57.6235 15.7617 57.9047 16.4466 57.9047C16.9471 57.9047 17.351 57.8344 17.7549 57.7114L17.9481 58.6954C17.4652 58.8886 16.8769 58.9853 16.2359 58.9853C14.629 58.9853 13.7158 58.0628 13.7158 56.6044C13.7158 55.4184 14.4622 54.1094 16.1042 54.1094C17.632 54.1094 18.2115 55.2866 18.2115 56.4463C18.2115 56.6923 18.1852 56.9119 18.1676 57.0174H15.1207H15.1119ZM16.8417 56.0246C16.8417 55.6732 16.6837 55.0758 16.0076 55.0758C15.3929 55.0758 15.1383 55.6293 15.1032 56.0246H16.8417Z" fill="#62686D"/>
        <path d="M19.0805 55.761C19.0805 55.0758 19.063 54.6189 19.0454 54.2236H20.3098L20.3625 55.0846H20.3976C20.6435 54.4081 21.223 54.1182 21.6708 54.1182C21.8025 54.1182 21.8728 54.1182 21.9782 54.1357V55.5063C21.8728 55.4887 21.7499 55.4711 21.583 55.4711C21.0386 55.4711 20.6786 55.761 20.582 56.2091C20.5645 56.3057 20.5557 56.4199 20.5557 56.5342V58.9062H19.0893V55.7698L19.0805 55.761Z" fill="#62686D"/>
        <path d="M24.279 52.9147C24.279 53.3189 23.9717 53.6439 23.4887 53.6439C23.0058 53.6439 22.716 53.3189 22.7248 52.9147C22.716 52.493 23.0233 52.1768 23.4975 52.1768C23.9717 52.1768 24.2702 52.493 24.279 52.9147ZM22.7599 58.8976V54.215H24.2263V58.8976H22.7599Z" fill="#62686D"/>
        <path d="M27.0537 52.8794V54.2236H28.1074V55.2954H27.0537V56.991C27.0537 57.5532 27.1854 57.8168 27.6332 57.8168C27.8176 57.8168 27.9581 57.7992 28.0723 57.7817V58.8798C27.8879 58.9589 27.5366 59.0028 27.1239 59.0028C26.6498 59.0028 26.2547 58.8447 26.0264 58.5987C25.7542 58.3176 25.6224 57.8695 25.6224 57.2106V55.2954H24.9902V54.2236H25.6224V53.2132L27.0625 52.8882L27.0537 52.8794Z" fill="#62686D"/>
        <path d="M33.4108 57.3952C33.4108 58.0101 33.4283 58.5021 33.4459 58.8975H32.1727L32.1025 58.2386H32.0761C31.8917 58.5285 31.4439 59.0029 30.601 59.0029C29.6439 59.0029 28.9414 58.4055 28.9414 56.9647V54.2148H30.4166V56.7275C30.4166 57.404 30.6361 57.8169 31.1541 57.8169C31.558 57.8169 31.7951 57.5357 31.8917 57.3073C31.9268 57.2195 31.9444 57.1052 31.9444 56.991V54.2061H33.4196V57.3864L33.4108 57.3952Z" fill="#62686D"/>
        <path d="M34.5784 57.6235C34.8506 57.7905 35.4125 57.975 35.8428 57.975C36.273 57.975 36.475 57.8256 36.475 57.5796C36.475 57.3336 36.3257 57.2282 35.7813 57.0437C34.8067 56.7186 34.4291 56.1915 34.4379 55.638C34.4379 54.7683 35.193 54.1094 36.3608 54.1094C36.914 54.1094 37.4057 54.2324 37.6955 54.3729L37.4321 55.3745C37.2213 55.2603 36.8174 55.1109 36.4047 55.1109C36.0447 55.1109 35.8428 55.2515 35.8428 55.4975C35.8428 55.7171 36.0272 55.8313 36.6067 56.0334C37.5023 56.3409 37.8799 56.7889 37.8887 57.483C37.8887 58.3527 37.195 58.9941 35.8428 58.9941C35.2281 58.9941 34.6749 58.8623 34.3149 58.669L34.5784 57.6235Z" fill="#62686D"/>
        <path d="M6.89305 64.283C6.86671 63.5099 6.83158 62.5699 6.83158 61.6298H6.80524C6.60329 62.4557 6.33109 63.3693 6.07645 64.1249L5.28618 66.6375H4.13591L3.44224 64.1425C3.2315 63.3869 3.00321 62.4644 2.85394 61.6298H2.83637C2.80125 62.4996 2.76613 63.4923 2.72222 64.3006L2.60808 66.7517H1.24707L1.65976 60.3032H3.61785L4.25884 62.4557C4.4608 63.2024 4.66276 64.0019 4.81203 64.7662H4.83837C5.02276 64.0195 5.24228 63.1673 5.45302 62.4469L6.14669 60.3032H8.06966L8.42967 66.7517H6.98964L6.89305 64.283Z" fill="#62686D"/>
        <path d="M10.6774 64.8806C10.7213 65.4868 11.3271 65.768 12.012 65.768C12.5125 65.768 12.9165 65.6977 13.3204 65.5747L13.5135 66.5587C13.0306 66.7519 12.4423 66.8486 11.8013 66.8486C10.1944 66.8486 9.28125 65.9261 9.28125 64.4677C9.28125 63.2817 10.0276 61.9727 11.6696 61.9727C13.1974 61.9727 13.777 63.1499 13.777 64.3096C13.777 64.5556 13.7506 64.7752 13.7243 64.8806H10.6774ZM12.4072 63.8879C12.4072 63.5365 12.2491 62.9391 11.573 62.9391C10.9584 62.9391 10.7037 63.4925 10.6686 63.8879H12.4072Z" fill="#62686D"/>
        <path d="M14.6465 63.6155C14.6465 62.9303 14.6289 62.4734 14.6113 62.0781H15.8757L15.9196 62.9391H15.9548C16.1919 62.2626 16.7802 61.9727 17.228 61.9727C17.3597 61.9727 17.4299 61.9727 17.5353 61.9902V63.3608C17.4299 63.3432 17.307 63.3256 17.1402 63.3256C16.5958 63.3256 16.2358 63.6155 16.1392 64.0636C16.1216 64.1602 16.1128 64.2744 16.1128 64.3886V66.7607H14.6465V63.6243V63.6155Z" fill="#62686D"/>
        <path d="M21.7937 66.6377C21.5303 66.7519 21.0386 66.8486 20.4766 66.8486C18.9488 66.8486 17.9741 65.9261 17.9741 64.4589C17.9741 63.0884 18.9224 61.9727 20.6786 61.9727C21.0649 61.9727 21.4864 62.0429 21.8025 62.1571L21.5742 63.2378C21.3986 63.1587 21.1439 63.0972 20.7488 63.0972C19.9761 63.0972 19.4756 63.6419 19.4844 64.4062C19.4844 65.2672 20.0639 65.7153 20.7752 65.7153C21.1264 65.7153 21.3898 65.6538 21.6181 65.5747L21.7937 66.6465V66.6377Z" fill="#62686D"/>
        <path d="M25.3326 66.7519L25.2448 66.2863H25.2184C24.9111 66.6553 24.4282 66.8574 23.8662 66.8574C22.9091 66.8574 22.3384 66.1721 22.3384 65.4253C22.3384 64.2129 23.436 63.6243 25.1131 63.6331V63.5628C25.1131 63.3168 24.9814 62.9566 24.2526 62.9566C23.7696 62.9566 23.2603 63.1235 22.9442 63.308L22.672 62.368C22.9969 62.1835 23.6467 61.9551 24.5072 61.9551C26.0789 61.9551 26.5882 62.8776 26.5882 63.9757V65.601C26.5882 66.0491 26.6058 66.4796 26.6585 66.7431H25.3326V66.7519ZM25.157 64.538C24.3843 64.5292 23.7872 64.7137 23.7872 65.276C23.7872 65.6538 24.0418 65.8295 24.3667 65.8295C24.7355 65.8295 25.034 65.5923 25.1306 65.2935C25.1482 65.2145 25.157 65.1354 25.157 65.0476V64.538Z" fill="#62686D"/>
        <path d="M29.3188 60.7339V62.0781H30.3725V63.1499H29.3188V64.8455C29.3188 65.4077 29.4505 65.6713 29.8984 65.6713C30.0827 65.6713 30.2232 65.6537 30.3374 65.6362V66.7343C30.153 66.8134 29.8018 66.8573 29.3891 66.8573C28.9149 66.8573 28.5198 66.6992 28.2915 66.4532C28.0193 66.1721 27.8876 65.724 27.8876 65.0651V63.1499H27.2554V62.0781H27.8876V61.0677L29.3276 60.7427L29.3188 60.7339Z" fill="#62686D"/>
        <path d="M35.6759 65.2497C35.6759 65.8646 35.6935 66.3566 35.711 66.752H34.4378L34.3676 66.0931H34.3412C34.1569 66.383 33.709 66.8574 32.8661 66.8574C31.909 66.8574 31.2065 66.26 31.2065 64.8192V62.0693H32.6817V64.582C32.6817 65.2584 32.9012 65.6714 33.4193 65.6714C33.8232 65.6714 34.0603 65.3902 34.1569 65.1618C34.192 65.0739 34.2008 64.9597 34.2008 64.8455V62.0605H35.6759V65.2409V65.2497Z" fill="#62686D"/>
        <path d="M36.8613 63.5628C36.8613 62.983 36.8437 62.4822 36.8262 62.0693H38.0642L38.1345 62.7018H38.1608C38.3628 62.4031 38.7755 61.9639 39.5921 61.9639C40.198 61.9639 40.6809 62.2714 40.8916 62.7546H40.9092C41.0848 62.5174 41.2955 62.3241 41.5151 62.1923C41.7785 62.0429 42.0682 61.9639 42.4107 61.9639C43.3151 61.9639 44.0088 62.5964 44.0088 63.9933V66.7519H42.5775V64.2042C42.5775 63.5277 42.358 63.1323 41.8838 63.1323C41.5414 63.1323 41.3043 63.3608 41.2077 63.6419C41.1726 63.7473 41.1463 63.8967 41.1463 64.0197V66.7607H39.715V64.1427C39.715 63.5452 39.5043 63.1499 39.0389 63.1499C38.6613 63.1499 38.4418 63.4398 38.354 63.677C38.3101 63.7912 38.2925 63.923 38.2925 64.0372V66.7607H36.8613V63.5716V63.5628Z" fill="#62686D"/>
        <path d="M21.0911 13.1869C21.056 13.3099 20.9857 13.4153 20.8979 13.5119C20.8365 13.5734 20.775 13.6174 20.7047 13.6525C20.4589 13.6701 20.2218 13.6876 19.9847 13.714H19.9759C19.8618 13.6789 19.7476 13.6086 19.6511 13.5119L16.1124 9.9714L11.7045 5.56112C11.4323 5.28877 11.3884 4.89342 11.5377 4.56836C11.5816 4.45415 11.6431 4.33994 11.7397 4.2433C12.0821 3.90067 12.6353 3.90067 12.9777 4.2433L16.1212 7.38849L20.9243 12.2029C21.1965 12.4665 21.2491 12.8618 21.0911 13.1869Z" fill="#62686D"/>
        <path d="M18.9396 15.3481C18.9045 15.4447 18.8518 15.5502 18.764 15.6292C18.4918 15.7083 18.2196 15.8049 17.9562 15.9104C17.7806 15.8752 17.6225 15.7962 17.4996 15.6644L7.43692 5.59628C7.16472 5.33271 7.11203 4.93737 7.27009 4.61231C7.31399 4.48931 7.37546 4.3751 7.47204 4.28725C7.81449 3.94462 8.36767 3.94462 8.71012 4.28725L18.7728 14.3554C19.045 14.6189 19.0889 15.023 18.9396 15.3481Z" fill="#62686D"/>
        <path d="M16.648 16.5431C16.1036 16.8506 15.5943 17.202 15.1289 17.6149L2.40571 4.88485C2.13351 4.6125 2.08961 4.21715 2.23888 3.89209C2.28278 3.7691 2.34425 3.66367 2.44084 3.56703C2.78328 3.2244 3.33647 3.2244 3.67891 3.56703L16.6129 16.508C16.6129 16.508 16.6304 16.5343 16.648 16.5431Z" fill="#62686D"/>
        <path d="M14.2421 18.4495C13.8294 18.8975 13.4519 19.3895 13.1182 19.9166L0.245725 7.03719C-0.017695 6.76484 -0.0703791 6.3695 0.0788925 6.04444C0.122796 5.93023 0.184261 5.81602 0.280848 5.71938C0.623295 5.37674 1.17648 5.37674 1.51892 5.71938L14.2421 18.4495Z" fill="#62686D"/>
        <path d="M12.486 21.0852L12.0119 22.3152C11.8977 22.3679 11.7748 22.3943 11.6519 22.3943C11.4236 22.3943 11.204 22.3152 11.0284 22.1395L0.965772 12.0714C0.693571 11.799 0.649668 11.4037 0.798939 11.0786C0.842843 10.9644 0.904307 10.8502 1.00089 10.7536C1.34334 10.4109 1.89652 10.4109 2.23897 10.7536L12.3016 20.8217C12.3807 20.9007 12.4421 20.9886 12.486 21.0852Z" fill="#62686D"/>
        <path d="M10.2646 23.1408C10.1856 23.5186 10.1329 23.9052 10.1154 24.3005H10.1066C9.93098 24.4762 9.72024 24.5553 9.49194 24.5553C9.26365 24.5553 9.04413 24.4762 8.87729 24.3005L4.46939 19.899L0.921995 16.3497C0.658574 16.0773 0.60589 15.682 0.755162 15.3569C0.799065 15.2339 0.86053 15.1285 0.957118 15.0319C1.29956 14.6892 1.85275 14.6892 2.19519 15.0319L7.04213 19.8814L10.1505 22.9827C10.1944 23.0354 10.2383 23.0881 10.2646 23.1408Z" fill="#62686D"/>
        <path d="M31.0747 28.9393C31.0835 29.1501 31.1713 29.3434 31.3206 29.4928L41.3832 39.5609C41.5501 39.7366 41.7784 39.8244 41.9979 39.8244C42.2174 39.8244 42.4545 39.7366 42.6213 39.5609C42.7179 39.473 42.7794 39.3588 42.8233 39.2446C42.9725 38.9107 42.9286 38.5154 42.6564 38.2518L32.5938 28.1837C32.2513 27.8411 31.6981 27.8411 31.3469 28.1837L31.3206 28.2101V28.2277L31.0747 28.9393Z" fill="#62686D"/>
        <path d="M31.8737 5.59641C31.8298 5.71062 31.7684 5.82483 31.6718 5.91268L26.7985 10.7886L23.7692 13.8284C23.4179 13.7581 23.0579 13.7054 22.6979 13.679C22.575 13.6702 22.4609 13.6614 22.3379 13.6526C22.2062 13.4067 22.1974 13.1255 22.3204 12.8795C22.3555 12.7565 22.4169 12.6511 22.5135 12.5545L26.7195 8.35503L27.0707 8.00362L30.4688 4.60365C30.8113 4.26102 31.3645 4.26102 31.7069 4.60365C31.9791 4.86722 32.023 5.27135 31.8737 5.59641Z" fill="#62686D"/>
        <path d="M10.2647 27.4282C10.2295 27.4897 10.1856 27.5511 10.1329 27.6039L2.18643 35.5547C2.01082 35.7304 1.78252 35.8095 1.563 35.8095C1.34348 35.8095 1.11519 35.7304 0.939573 35.5547C0.676153 35.2911 0.623469 34.887 0.77274 34.5619C0.816644 34.4477 0.878108 34.3335 0.974696 34.2369L8.92121 26.286C9.2461 25.961 9.76416 25.9434 10.1066 26.2333C10.1329 26.6463 10.1856 27.0416 10.2647 27.4282Z" fill="#62686D"/>
        <path d="M12.4599 29.4839C12.4247 29.5894 12.3721 29.6772 12.293 29.7563L2.23038 39.8244C2.05476 40.0001 1.82646 40.0792 1.60695 40.0792C1.38743 40.0792 1.15913 40.0001 0.983518 39.8244C0.720098 39.552 0.667414 39.1567 0.816685 38.8316C0.860589 38.7174 0.922054 38.6032 1.01864 38.5066L11.0813 28.4385C11.3272 28.1925 11.6784 28.1222 11.9857 28.2364C12.1174 28.6669 12.2755 29.0798 12.4599 29.4839Z" fill="#62686D"/>
        <path d="M14.2158 32.1459L1.51016 44.8584C1.33455 45.0341 1.11503 45.1132 0.886732 45.1132C0.658434 45.1132 0.438917 45.0341 0.263304 44.8584C-0.000116918 44.5861 -0.052801 44.1907 0.0964706 43.8657C0.140374 43.7515 0.201839 43.6372 0.298426 43.5406L13.127 30.7139C13.4431 31.2234 13.8119 31.7066 14.2158 32.1459Z" fill="#62686D"/>
        <path d="M16.6128 34.0611L3.66132 47.0196C3.49449 47.1865 3.26619 47.2744 3.04668 47.2744C2.82716 47.2744 2.59008 47.1865 2.42325 47.0196C2.15105 46.7473 2.09836 46.3519 2.25642 46.0268C2.30032 45.9039 2.36178 45.7984 2.45837 45.7018L15.1377 33.0156C15.5943 33.411 16.086 33.7624 16.6128 34.0611Z" fill="#62686D"/>
        <path d="M17.9299 34.6938H17.9211C17.7894 34.729 17.6577 34.8081 17.5523 34.9135L7.48966 44.9816C7.39308 45.0782 7.33161 45.1924 7.28771 45.3066C7.13844 45.6317 7.18234 46.0271 7.45454 46.2994C7.62137 46.4663 7.84967 46.5542 8.07797 46.5542C8.30627 46.5542 8.52578 46.4663 8.69262 46.2994L18.7553 36.2313C18.8519 36.1347 18.9133 36.0204 18.9572 35.9062C19.0889 35.6251 19.0714 35.2913 18.887 35.0277L17.9299 34.6938Z" fill="#62686D"/>
        <path d="M42.8673 34.975C42.8234 35.0892 42.7619 35.2034 42.6653 35.2912C42.4897 35.4669 42.2702 35.5548 42.0419 35.5548C41.8136 35.5548 41.5941 35.4669 41.4272 35.2912L36.7735 30.6437L33.4719 27.3404C33.3227 27.1823 33.2436 26.9978 33.2349 26.8045V26.7694C33.2524 26.6727 33.2612 26.5761 33.2612 26.4794C33.27 26.4267 33.2875 26.3916 33.3051 26.3477C33.349 26.2334 33.4105 26.1192 33.5071 26.0226C33.8495 25.68 34.4027 25.68 34.7451 26.0226L39.3813 30.6613L42.7004 33.9822C42.9639 34.2458 43.0165 34.6411 42.8673 34.975Z" fill="#62686D"/>
        <path d="M43.5431 44.2701C43.4992 44.3931 43.4377 44.5073 43.3411 44.5952C43.1655 44.7709 42.946 44.8587 42.7177 44.8587C42.4894 44.8587 42.2699 44.7709 42.1031 44.5952L29.3447 31.8387C29.7574 31.3731 30.1086 30.8635 30.416 30.3188C30.416 30.3188 30.4218 30.3247 30.4335 30.3364L43.3763 43.2861C43.6397 43.5497 43.6924 43.9451 43.5431 44.2701Z" fill="#62686D"/>
        <path d="M41.3833 46.4313C41.3394 46.5456 41.2779 46.6598 41.1901 46.7564C41.0145 46.9233 40.7862 47.0112 40.5667 47.0112C40.3472 47.0112 40.1189 46.9233 39.9433 46.7564L27.0444 33.8418C27.5713 33.5168 28.063 33.139 28.5108 32.7261L41.2165 45.4386C41.4887 45.7109 41.5413 46.1063 41.3833 46.4313Z" fill="#62686D"/>
        <path d="M36.3518 45.7107C36.3079 45.8337 36.2464 45.9391 36.1498 46.0358C35.983 46.2115 35.7547 46.2905 35.5352 46.2905C35.3156 46.2905 35.0873 46.2115 34.9117 46.0358L24.8491 35.9676C24.5769 35.6953 24.533 35.3 24.6822 34.9749C24.691 34.9661 24.691 34.9485 24.6998 34.9398C25.1037 34.8168 25.4988 34.6674 25.8764 34.4829C25.9642 34.5181 26.0432 34.5708 26.1223 34.6498L36.1849 44.7179C36.4571 44.9903 36.5098 45.3856 36.3518 45.7107Z" fill="#62686D"/>
        <path d="M32.0844 45.7546C32.0405 45.8776 31.979 45.983 31.8825 46.0796C31.7156 46.2553 31.4873 46.3344 31.259 46.3344C31.0307 46.3344 30.8112 46.2553 30.6444 46.0796L26.9214 42.3634L26.5701 42.012L22.6891 38.1288C22.4257 37.8565 22.373 37.4611 22.5223 37.1361C22.5574 37.0482 22.6101 36.9516 22.6803 36.8725C22.812 36.8637 22.9349 36.8549 23.0579 36.8374C23.3301 36.8022 23.5935 36.7671 23.8481 36.7144C23.8833 36.7407 23.9272 36.7759 23.9623 36.811L26.7984 39.6487L27.0092 39.8595L31.9176 44.7706C32.181 45.0342 32.2337 45.4295 32.0844 45.7546Z" fill="#62686D"/>
        <path d="M36.1412 5.63156C36.1061 5.74577 36.0359 5.85998 35.948 5.95662L25.8854 16.0247C25.8854 16.0247 25.8239 16.0774 25.7888 16.1038C25.3498 15.8929 24.8932 15.726 24.419 15.5942C24.3663 15.4097 24.3927 15.2077 24.4717 15.032C24.5156 14.9178 24.5771 14.8036 24.6737 14.7069L34.7363 4.63881C35.0788 4.29618 35.6319 4.29618 35.9744 4.63881C36.2466 4.91116 36.2993 5.3065 36.1412 5.63156Z" fill="#62686D"/>
        <path d="M41.1725 4.91135C41.1374 5.03435 41.0671 5.13977 40.9793 5.23641L28.4054 17.8084C27.9663 17.4042 27.4834 17.044 26.9741 16.7278L39.7676 3.91859C40.11 3.57596 40.6632 3.57596 41.0057 3.91859C41.2779 4.19094 41.3305 4.58629 41.1725 4.91135Z" fill="#62686D"/>
        <path d="M43.3323 7.07248C43.2884 7.18669 43.2269 7.3009 43.1303 7.39754L30.3457 20.1891C30.0471 19.662 29.6871 19.17 29.292 18.7132L41.9274 6.07973C42.2698 5.7371 42.823 5.7371 43.1655 6.07973C43.4377 6.35208 43.4816 6.74742 43.3323 7.07248Z" fill="#62686D"/>
        <path d="M42.6124 12.1067C42.5685 12.2209 42.5071 12.3351 42.4105 12.4317L32.3478 22.4998C32.181 22.6667 31.9527 22.7546 31.7332 22.7546C31.619 22.7546 31.5137 22.737 31.4083 22.6931C31.2941 22.2626 31.1449 21.8409 30.978 21.4368C31.0132 21.3401 31.0658 21.2611 31.1449 21.182L41.2075 11.1139C41.55 10.7713 42.1032 10.7713 42.4456 11.1139C42.7178 11.3863 42.7617 11.7816 42.6124 12.1067Z" fill="#62686D"/>
        <path d="M42.6565 16.3762C42.6126 16.4992 42.5511 16.6134 42.4545 16.7013L39.1003 20.0573L34.508 24.6609C34.3324 24.8278 34.1129 24.9156 33.8846 24.9156C33.6826 24.9156 33.4807 24.8454 33.3138 24.7048C33.2963 24.2919 33.2524 23.879 33.1821 23.4836C33.2173 23.4397 33.2524 23.387 33.2963 23.343L36.5978 20.0397L41.2428 15.3922C41.5852 15.0496 42.1472 15.0496 42.4897 15.3922C42.7531 15.6558 42.8058 16.0511 42.6565 16.3762Z" fill="#62686D"/>
        <path d="M20.6696 36.8901H20.6784C20.775 36.934 20.8716 36.9955 20.9506 37.0746C21.214 37.347 21.2667 37.7423 21.1174 38.0674C21.0735 38.1816 21.0121 38.2958 20.9155 38.3924L15.9808 43.3211L12.9602 46.3432C12.7934 46.519 12.5651 46.598 12.3455 46.598C12.126 46.598 11.8977 46.519 11.7221 46.3432C11.4499 46.0709 11.406 45.6756 11.5553 45.3505C11.5992 45.2363 11.6607 45.1221 11.7572 45.0254L15.9808 40.7996L19.7038 37.0746C19.8267 36.9604 19.9672 36.8813 20.1165 36.8462H20.1252L20.6696 36.8901Z" fill="#62686D"/>
        <path d="M36.9842 25.908C36.6329 25.5654 36.6417 25.0031 36.993 24.6605L40.1891 21.568C40.7599 21.0145 40.3735 20.0569 39.5833 20.0569H39.1003L36.9491 20.0394H36.5978C36.1851 20.0218 35.8954 19.7494 35.7988 19.4068C35.7637 19.2926 35.7549 19.1872 35.7724 19.073C35.7812 18.8797 35.8602 18.6952 36.0183 18.5371L38.1432 16.4373C38.6525 15.9278 38.3715 15.0932 37.7217 14.9526C37.6603 14.9438 37.5988 14.935 37.5286 14.935H35.9568L35.6056 14.9262L33.4543 14.9087H32.9538C32.6026 14.9087 32.3041 14.7066 32.1636 14.4079C32.1197 14.3288 32.0933 14.2322 32.0846 14.1356C32.0758 14.1004 32.0758 14.0653 32.0758 14.0213L32.1109 11.9304V11.579H32.1197L32.146 10.1206V9.76041L32.1548 9.57591C32.1636 8.94336 31.5665 8.56559 31.0309 8.71494C30.8992 8.75008 30.7675 8.82037 30.6533 8.93458L28.5547 11.0167C28.4406 11.1309 28.3001 11.21 28.1596 11.2364C27.7645 11.3506 27.3342 11.1573 27.1498 10.7971C27.1147 10.718 27.0796 10.6214 27.0796 10.516C27.062 10.472 27.062 10.4369 27.062 10.393V8.36353L27.0708 7.39713C27.0708 6.61522 26.1313 6.21988 25.5781 6.77336L22.3292 9.98883C21.978 10.3402 21.416 10.3315 21.0824 9.98004L17.9828 6.78215C17.4384 6.21109 16.4813 6.59765 16.4725 7.38834V9.98004L16.4637 10.3402C16.4549 10.7356 16.2179 11.0255 15.9105 11.1485C15.8227 11.1836 15.7174 11.21 15.6208 11.21C15.3925 11.2276 15.1466 11.1485 14.9622 10.9552L12.8549 8.82915C12.3544 8.32838 11.5465 8.59195 11.3885 9.21571C11.3621 9.286 11.3534 9.36506 11.3534 9.44413V10.9025L11.3446 11.2539V13.4766L11.3358 14.0213C11.3358 14.3376 11.1602 14.6188 10.9055 14.7769C10.8265 14.8208 10.7475 14.856 10.6597 14.8735H10.6509C10.5807 14.8911 10.5104 14.8999 10.4402 14.8999L8.41184 14.8647H8.05183L6.6557 14.8384H6.29569L5.98837 14.8296C5.39128 14.812 5.01371 15.3655 5.11908 15.8839C5.1542 16.042 5.22445 16.1913 5.35616 16.3231L7.43718 18.4228C7.53377 18.5195 7.60401 18.6337 7.63035 18.7479C7.77084 19.1257 7.62157 19.5562 7.28791 19.7758C7.21766 19.8197 7.12986 19.8637 7.04205 19.89C6.96302 19.9076 6.884 19.9164 6.80497 19.9164H4.82932L3.81954 19.9076C3.03806 19.8988 2.63415 20.8476 3.18733 21.4011L6.40984 24.6517C6.75229 25.0031 6.74351 25.5654 6.39228 25.8992L3.19611 29.0005C2.63415 29.5452 3.0205 30.5028 3.80198 30.5116H6.76107C6.89278 30.5204 7.01571 30.5467 7.12986 30.617C7.20888 30.6434 7.27913 30.6961 7.34059 30.7576C7.69182 31.0563 7.76206 31.6361 7.37571 32.0227L5.25079 34.1312C5.13664 34.2454 5.0664 34.3772 5.03127 34.509C4.98737 34.632 4.98737 34.7637 5.00493 34.8867C5.0664 35.2909 5.39128 35.6335 5.86544 35.6335H8.2011H8.55233H10.4402C10.5192 35.6423 10.5982 35.6599 10.6773 35.6862C10.7563 35.7038 10.8353 35.7477 10.9143 35.8004H10.9231C11.1602 35.9586 11.3182 36.2309 11.3095 36.5384V37.2061L11.2656 39.42V39.7714L11.2568 39.7802L11.2392 40.9926C11.2392 41.0629 11.248 41.1332 11.2656 41.2035C11.2831 41.3001 11.3182 41.3792 11.3709 41.4582C11.6431 41.9063 12.3017 42.0557 12.7319 41.6252L14.8305 39.543C15.0676 39.3058 15.3925 39.2443 15.6647 39.3234C15.7525 39.341 15.8315 39.3849 15.9105 39.4288H15.9193C16.1564 39.5782 16.332 39.8417 16.332 40.1756V40.7993L16.3144 42.9869V43.1626C16.3144 43.2241 16.3232 43.268 16.332 43.3208C16.4462 44.006 17.2979 44.3047 17.8159 43.7952L21.0648 40.5709C21.4072 40.2283 21.9692 40.2371 22.3117 40.5885L25.4025 43.7864C25.9556 44.3487 26.9127 43.9621 26.9127 43.1802V42.3631L26.9215 42.0029V40.2195C26.9303 40.0877 26.9566 39.9647 27.0093 39.8593C27.0444 39.7802 27.0883 39.7099 27.1498 39.6484C27.4484 39.2882 28.0367 39.2092 28.4318 39.6045L30.5304 41.7306C30.6182 41.8185 30.706 41.8799 30.8026 41.9239C30.9343 41.9766 31.0748 42.0029 31.2153 41.9854C31.6455 41.959 32.0319 41.6164 32.0319 41.1156V40.5797L32.0406 40.2283V38.8665L32.0494 38.5063V36.5384C32.0582 36.4593 32.067 36.3803 32.0933 36.31C32.1109 36.2221 32.1548 36.1431 32.1987 36.064C32.3655 35.818 32.6377 35.6599 32.9451 35.6686H33.5334L35.7988 35.7126H36.1588L37.3969 35.7389C37.4408 35.7389 37.4935 35.7389 37.5374 35.7214C37.6339 35.7126 37.7217 35.6862 37.8096 35.6423C38.3101 35.3963 38.4857 34.6935 38.0379 34.2454L35.9568 32.1457C35.7198 31.9085 35.6583 31.601 35.7285 31.3199C35.7461 31.232 35.7812 31.1529 35.8339 31.0739C35.9744 30.8279 36.2378 30.6434 36.5803 30.6434H37.1334L39.3813 30.661H39.5745C39.6272 30.661 39.6711 30.661 39.7237 30.6522C40.3999 30.538 40.716 29.6858 40.1979 29.1586L36.9842 25.908ZM32.2777 30.1075C32.2426 30.1865 32.2075 30.2656 32.1636 30.3447C32.0231 30.661 31.865 30.9509 31.6806 31.2408C31.6367 31.3111 31.5928 31.3901 31.5489 31.4604C31.2767 31.9173 30.9606 32.339 30.6094 32.7519C30.5567 32.8222 30.504 32.8837 30.4513 32.9452C30.2318 33.1912 30.0123 33.4196 29.784 33.648C29.7225 33.7095 29.6611 33.7622 29.5996 33.8149C29.2133 34.1751 28.8006 34.5178 28.3615 34.8165C28.2913 34.8692 28.2211 34.9131 28.1508 34.957C27.8786 35.1503 27.5976 35.326 27.3079 35.4842C27.2288 35.5281 27.1586 35.5632 27.0796 35.6071C26.5791 35.8707 26.061 36.0903 25.5166 36.2748C25.4288 36.3012 25.341 36.3363 25.2532 36.3627C24.8844 36.4857 24.5068 36.5823 24.1205 36.6614C24.0327 36.679 23.9449 36.6965 23.8571 36.7141C23.6024 36.7668 23.339 36.802 23.0668 36.8371C22.9439 36.8547 22.8209 36.8635 22.6892 36.8723C22.3643 36.8986 22.0395 36.9162 21.7058 36.9162C21.4775 36.9162 21.258 36.9074 21.0385 36.8898H21.0297C20.8453 36.8898 20.6609 36.8723 20.4853 36.8459H20.4765C19.897 36.7932 19.3438 36.6878 18.7994 36.5472C18.7116 36.5208 18.615 36.5033 18.5272 36.4681C17.974 36.3188 17.4472 36.1255 16.9379 35.8883C16.8589 35.8531 16.7798 35.818 16.7008 35.7741C16.3759 35.6335 16.0598 35.4666 15.7613 35.2821C15.691 35.2382 15.6208 35.1942 15.5505 35.1415C15.1027 34.878 14.6812 34.5705 14.2773 34.2366C14.2159 34.1839 14.1544 34.1312 14.0929 34.0697C13.8295 33.8501 13.5837 33.6216 13.3466 33.3757C13.2939 33.3142 13.2324 33.2527 13.1797 33.1912C12.8285 32.8134 12.5036 32.4093 12.2051 31.9876C12.1524 31.9173 12.1085 31.847 12.0646 31.7767C11.8626 31.4868 11.6782 31.1969 11.5114 30.8894C11.4675 30.8103 11.4324 30.74 11.3885 30.661C11.1338 30.1778 10.9143 29.677 10.7299 29.1586C10.7036 29.0708 10.6685 28.9829 10.6421 28.8951C10.5192 28.5261 10.4226 28.1483 10.3436 27.753C10.3172 27.6475 10.2909 27.5333 10.2733 27.4279C10.1943 27.0414 10.1416 26.646 10.1153 26.2419C10.1153 26.1716 10.1065 26.1189 10.1065 26.0574C10.0802 25.8026 10.0714 25.539 10.0714 25.2755C10.0714 25.0119 10.0802 24.7659 10.0977 24.5199C10.1065 24.4497 10.1065 24.3794 10.1153 24.3091L10.1241 24.3003C10.1416 23.905 10.1943 23.5184 10.2733 23.1406C10.2909 23.0264 10.3085 22.9122 10.3348 22.8068C10.4138 22.4378 10.5104 22.0776 10.6246 21.7262C10.6509 21.6383 10.6773 21.5505 10.7124 21.4626C10.8968 20.9179 11.1163 20.3996 11.3797 19.8988C11.4236 19.8197 11.4587 19.7494 11.5026 19.6704C11.6607 19.3805 11.8363 19.0905 12.0295 18.8182C12.0734 18.7479 12.1173 18.6776 12.17 18.6073C12.4685 18.1681 12.811 17.7552 13.171 17.3686C13.2236 17.3071 13.2763 17.2456 13.3378 17.1841C13.5661 16.9557 13.8032 16.7273 14.049 16.5252C14.1105 16.4637 14.172 16.411 14.2334 16.3583C14.6373 16.0069 15.0676 15.6994 15.5242 15.4182C15.5944 15.3743 15.6735 15.3304 15.7437 15.2864C16.0335 15.102 16.3232 14.9438 16.6393 14.8032C16.7184 14.7593 16.7974 14.7242 16.8764 14.689C17.3945 14.443 17.9477 14.241 18.5096 14.0828C18.5974 14.0565 18.694 14.0301 18.7818 14.0038C19.2911 13.872 19.8004 13.7754 20.336 13.7139H20.3448C20.5819 13.6875 20.8189 13.6699 21.0648 13.6524C21.2755 13.6436 21.4863 13.6348 21.7058 13.6348C21.9253 13.6348 22.136 13.6436 22.3468 13.6524C22.4697 13.6611 22.5839 13.6699 22.7068 13.6787C23.0668 13.7051 23.4268 13.7578 23.778 13.8281C23.8746 13.8368 23.98 13.8632 24.0766 13.8808C24.4717 13.9598 24.8493 14.0565 25.2181 14.1795C25.3059 14.2058 25.3937 14.241 25.4815 14.2673C26.0083 14.443 26.5176 14.6627 27.0093 14.9087C27.0883 14.9526 27.1674 14.9877 27.2376 15.0317C27.5449 15.1986 27.8347 15.3743 28.1245 15.5764C28.1947 15.6203 28.265 15.6642 28.3352 15.7169C28.7567 16.0069 29.1694 16.3319 29.5469 16.6833C29.6084 16.736 29.6699 16.7975 29.7313 16.8503C29.9772 17.0875 30.2143 17.3247 30.4338 17.5882C30.4952 17.6497 30.5479 17.7112 30.6006 17.7727C30.9343 18.1681 31.2416 18.581 31.5226 19.0203C31.5665 19.0905 31.6104 19.1696 31.6543 19.2399C31.8387 19.5386 32.0055 19.8549 32.1636 20.1711C32.2075 20.2502 32.2426 20.3293 32.2777 20.4084C32.5148 20.9091 32.708 21.445 32.866 21.9897C32.8924 22.0776 32.9187 22.1742 32.9451 22.2621C33.0504 22.6574 33.1382 23.0616 33.1909 23.4833C33.2612 23.8786 33.3051 24.2915 33.3226 24.7044C33.3314 24.8977 33.3402 25.0822 33.3402 25.2755C33.3402 25.6796 33.3226 26.075 33.2699 26.4703C33.2699 26.5757 33.2612 26.6724 33.2436 26.769V26.8041C33.1821 27.2873 33.0855 27.7442 32.9714 28.201C32.9451 28.2889 32.9187 28.3855 32.8924 28.4734C32.7343 29.0356 32.5324 29.5891 32.2865 30.1075H32.2777Z" fill="#996E51"/>
        <path d="M19.4406 0V5.46454L16.3498 2.86405C16.1127 2.66199 15.9985 2.34571 16.0512 2.03822L16.2883 0.720405C16.3673 0.298705 16.7273 0 17.1488 0H19.4318L19.4406 0Z" fill="#234496"/>
        <path d="M22.9176 0V5.45575L21.7322 6.44851C21.4073 6.72086 20.9244 6.72086 20.5995 6.44851L19.4316 5.46454V0H22.9088H22.9176Z" fill="#FFE104"/>
        <path d="M25.9907 2.86405L22.9175 5.45575V0H25.1917C25.6219 0 25.9819 0.30749 26.0522 0.729191L26.2805 2.04701C26.3332 2.3545 26.219 2.67077 25.9819 2.87284L25.9907 2.86405Z" fill="#E00914"/>
    </g>
    <defs>
        <clipPath id="clip0_46_998">
            <rect width="44" height="66.8571" fill="white"/>
        </clipPath>
    </defs>
</svg>